<?xml version="1.0" encoding="UTF-8" standalone="no"?>
<!DOCTYPE svg PUBLIC "-//W3C//DTD SVG 1.1//EN"
 "http://www.w3.org/Graphics/SVG/1.1/DTD/svg11.dtd">
<!-- Generated by graphviz version 2.40.1 (20161225.0304)
 -->
<!-- Title: %3 Pages: 1 -->
<svg width="266pt" height="309pt"
 viewBox="0.00 0.00 265.50 309.00" xmlns="http://www.w3.org/2000/svg" xmlns:xlink="http://www.w3.org/1999/xlink">
<g id="graph0" class="graph" transform="scale(1 1) rotate(0) translate(4 305)">
<title>%3</title>
<polygon fill="#ffffff" stroke="transparent" points="-4,4 -4,-305 261.5,-305 261.5,4 -4,4"/>
<!-- 139628872764624 -->
<g id="node1" class="node">
<title>139628872764624</title>
<polygon fill="#caff70" stroke="#000000" points="171,-21 67,-21 67,0 171,0 171,-21"/>
<text text-anchor="middle" x="119" y="-7.4" font-family="Times,serif" font-size="12.00" fill="#000000">AddmmBackward</text>
</g>
<!-- 139628872764304 -->
<g id="node2" class="node">
<title>139628872764304</title>
<polygon fill="#add8e6" stroke="#000000" points="54,-91 0,-91 0,-57 54,-57 54,-91"/>
<text text-anchor="middle" x="27" y="-77.4" font-family="Times,serif" font-size="12.00" fill="#000000">2.bias</text>
<text text-anchor="middle" x="27" y="-64.4" font-family="Times,serif" font-size="12.00" fill="#000000"> (10)</text>
</g>
<!-- 139628872764304&#45;&gt;139628872764624 -->
<g id="edge1" class="edge">
<title>139628872764304&#45;&gt;139628872764624</title>
<path fill="none" stroke="#000000" d="M51.6543,-56.9832C65.1894,-47.641 81.8926,-36.1122 95.278,-26.8734"/>
<polygon fill="#000000" stroke="#000000" points="97.2865,-29.7398 103.5283,-21.1788 93.3102,-23.9788 97.2865,-29.7398"/>
</g>
<!-- 139628872764688 -->
<g id="node3" class="node">
<title>139628872764688</title>
<polygon fill="#d3d3d3" stroke="#000000" points="166,-84.5 72,-84.5 72,-63.5 166,-63.5 166,-84.5"/>
<text text-anchor="middle" x="119" y="-70.9" font-family="Times,serif" font-size="12.00" fill="#000000">ReluBackward0</text>
</g>
<!-- 139628872764688&#45;&gt;139628872764624 -->
<g id="edge2" class="edge">
<title>139628872764688&#45;&gt;139628872764624</title>
<path fill="none" stroke="#000000" d="M119,-63.2281C119,-54.5091 119,-41.9699 119,-31.3068"/>
<polygon fill="#000000" stroke="#000000" points="122.5001,-31.1128 119,-21.1128 115.5001,-31.1129 122.5001,-31.1128"/>
</g>
<!-- 139628872764816 -->
<g id="node4" class="node">
<title>139628872764816</title>
<polygon fill="#d3d3d3" stroke="#000000" points="171,-154.5 67,-154.5 67,-133.5 171,-133.5 171,-154.5"/>
<text text-anchor="middle" x="119" y="-140.9" font-family="Times,serif" font-size="12.00" fill="#000000">AddmmBackward</text>
</g>
<!-- 139628872764816&#45;&gt;139628872764688 -->
<g id="edge3" class="edge">
<title>139628872764816&#45;&gt;139628872764688</title>
<path fill="none" stroke="#000000" d="M119,-133.3685C119,-123.1925 119,-107.5606 119,-94.8912"/>
<polygon fill="#000000" stroke="#000000" points="122.5001,-94.7315 119,-84.7315 115.5001,-94.7316 122.5001,-94.7315"/>
</g>
<!-- 139628872765072 -->
<g id="node5" class="node">
<title>139628872765072</title>
<polygon fill="#add8e6" stroke="#000000" points="105,-231 51,-231 51,-197 105,-197 105,-231"/>
<text text-anchor="middle" x="78" y="-217.4" font-family="Times,serif" font-size="12.00" fill="#000000">0.bias</text>
<text text-anchor="middle" x="78" y="-204.4" font-family="Times,serif" font-size="12.00" fill="#000000"> (100)</text>
</g>
<!-- 139628872765072&#45;&gt;139628872764816 -->
<g id="edge4" class="edge">
<title>139628872765072&#45;&gt;139628872764816</title>
<path fill="none" stroke="#000000" d="M88.1348,-196.6966C94.0172,-186.6535 101.4448,-173.9722 107.5395,-163.5667"/>
<polygon fill="#000000" stroke="#000000" points="110.6454,-165.189 112.6794,-154.7913 104.6052,-161.6512 110.6454,-165.189"/>
</g>
<!-- 139628872765008 -->
<g id="node6" class="node">
<title>139628872765008</title>
<polygon fill="#d3d3d3" stroke="#000000" points="196.5,-224.5 123.5,-224.5 123.5,-203.5 196.5,-203.5 196.5,-224.5"/>
<text text-anchor="middle" x="160" y="-210.9" font-family="Times,serif" font-size="12.00" fill="#000000">TBackward</text>
</g>
<!-- 139628872765008&#45;&gt;139628872764816 -->
<g id="edge5" class="edge">
<title>139628872765008&#45;&gt;139628872764816</title>
<path fill="none" stroke="#000000" d="M153.773,-203.3685C147.5719,-192.7814 137.9119,-176.2886 130.3456,-163.3705"/>
<polygon fill="#000000" stroke="#000000" points="133.3598,-161.5915 125.2856,-154.7315 127.3196,-165.1293 133.3598,-161.5915"/>
</g>
<!-- 139628872765392 -->
<g id="node7" class="node">
<title>139628872765392</title>
<polygon fill="#add8e6" stroke="#000000" points="197.5,-301 122.5,-301 122.5,-267 197.5,-267 197.5,-301"/>
<text text-anchor="middle" x="160" y="-287.4" font-family="Times,serif" font-size="12.00" fill="#000000">0.weight</text>
<text text-anchor="middle" x="160" y="-274.4" font-family="Times,serif" font-size="12.00" fill="#000000"> (100, 1000)</text>
</g>
<!-- 139628872765392&#45;&gt;139628872765008 -->
<g id="edge6" class="edge">
<title>139628872765392&#45;&gt;139628872765008</title>
<path fill="none" stroke="#000000" d="M160,-266.6966C160,-257.0634 160,-245.003 160,-234.8518"/>
<polygon fill="#000000" stroke="#000000" points="163.5001,-234.7912 160,-224.7913 156.5001,-234.7913 163.5001,-234.7912"/>
</g>
<!-- 139628872764752 -->
<g id="node8" class="node">
<title>139628872764752</title>
<polygon fill="#d3d3d3" stroke="#000000" points="257.5,-84.5 184.5,-84.5 184.5,-63.5 257.5,-63.5 257.5,-84.5"/>
<text text-anchor="middle" x="221" y="-70.9" font-family="Times,serif" font-size="12.00" fill="#000000">TBackward</text>
</g>
<!-- 139628872764752&#45;&gt;139628872764624 -->
<g id="edge7" class="edge">
<title>139628872764752&#45;&gt;139628872764624</title>
<path fill="none" stroke="#000000" d="M203.6971,-63.2281C187.4805,-53.1325 163.0365,-37.9149 144.5702,-26.4187"/>
<polygon fill="#000000" stroke="#000000" points="146.3865,-23.4266 136.0474,-21.1128 142.6869,-29.3692 146.3865,-23.4266"/>
</g>
<!-- 139628873882896 -->
<g id="node9" class="node">
<title>139628873882896</title>
<polygon fill="#add8e6" stroke="#000000" points="252.5,-161 189.5,-161 189.5,-127 252.5,-127 252.5,-161"/>
<text text-anchor="middle" x="221" y="-147.4" font-family="Times,serif" font-size="12.00" fill="#000000">2.weight</text>
<text text-anchor="middle" x="221" y="-134.4" font-family="Times,serif" font-size="12.00" fill="#000000"> (10, 100)</text>
</g>
<!-- 139628873882896&#45;&gt;139628872764752 -->
<g id="edge8" class="edge">
<title>139628873882896&#45;&gt;139628872764752</title>
<path fill="none" stroke="#000000" d="M221,-126.6966C221,-117.0634 221,-105.003 221,-94.8518"/>
<polygon fill="#000000" stroke="#000000" points="224.5001,-94.7912 221,-84.7913 217.5001,-94.7913 224.5001,-94.7912"/>
</g>
</g>
</svg>
