<?xml version="1.0" encoding="UTF-8" standalone="no"?>
<!DOCTYPE svg PUBLIC "-//W3C//DTD SVG 1.1//EN"
 "http://www.w3.org/Graphics/SVG/1.1/DTD/svg11.dtd">
<!-- Generated by graphviz version 2.40.1 (20161225.0304)
 -->
<!-- Title: %3 Pages: 1 -->
<svg width="267pt" height="309pt"
 viewBox="0.00 0.00 266.50 309.00" xmlns="http://www.w3.org/2000/svg" xmlns:xlink="http://www.w3.org/1999/xlink">
<g id="graph0" class="graph" transform="scale(1 1) rotate(0) translate(4 305)">
<title>%3</title>
<polygon fill="#ffffff" stroke="transparent" points="-4,4 -4,-305 262.5,-305 262.5,4 -4,4"/>
<!-- 139628872764944 -->
<g id="node1" class="node">
<title>139628872764944</title>
<polygon fill="#caff70" stroke="#000000" points="171,-21 67,-21 67,0 171,0 171,-21"/>
<text text-anchor="middle" x="119" y="-7.4" font-family="Times,serif" font-size="12.00" fill="#000000">AddmmBackward</text>
</g>
<!-- 139628872765200 -->
<g id="node2" class="node">
<title>139628872765200</title>
<polygon fill="#add8e6" stroke="#000000" points="54,-91 0,-91 0,-57 54,-57 54,-91"/>
<text text-anchor="middle" x="27" y="-77.4" font-family="Times,serif" font-size="12.00" fill="#000000">w1.bias</text>
<text text-anchor="middle" x="27" y="-64.4" font-family="Times,serif" font-size="12.00" fill="#000000"> (10)</text>
</g>
<!-- 139628872765200&#45;&gt;139628872764944 -->
<g id="edge1" class="edge">
<title>139628872765200&#45;&gt;139628872764944</title>
<path fill="none" stroke="#000000" d="M51.6543,-56.9832C65.1894,-47.641 81.8926,-36.1122 95.278,-26.8734"/>
<polygon fill="#000000" stroke="#000000" points="97.2865,-29.7398 103.5283,-21.1788 93.3102,-23.9788 97.2865,-29.7398"/>
</g>
<!-- 139628872764880 -->
<g id="node3" class="node">
<title>139628872764880</title>
<polygon fill="#d3d3d3" stroke="#000000" points="166,-84.5 72,-84.5 72,-63.5 166,-63.5 166,-84.5"/>
<text text-anchor="middle" x="119" y="-70.9" font-family="Times,serif" font-size="12.00" fill="#000000">ReluBackward0</text>
</g>
<!-- 139628872764880&#45;&gt;139628872764944 -->
<g id="edge2" class="edge">
<title>139628872764880&#45;&gt;139628872764944</title>
<path fill="none" stroke="#000000" d="M119,-63.2281C119,-54.5091 119,-41.9699 119,-31.3068"/>
<polygon fill="#000000" stroke="#000000" points="122.5001,-31.1128 119,-21.1128 115.5001,-31.1129 122.5001,-31.1128"/>
</g>
<!-- 139628872764368 -->
<g id="node4" class="node">
<title>139628872764368</title>
<polygon fill="#d3d3d3" stroke="#000000" points="170,-154.5 66,-154.5 66,-133.5 170,-133.5 170,-154.5"/>
<text text-anchor="middle" x="118" y="-140.9" font-family="Times,serif" font-size="12.00" fill="#000000">AddmmBackward</text>
</g>
<!-- 139628872764368&#45;&gt;139628872764880 -->
<g id="edge3" class="edge">
<title>139628872764368&#45;&gt;139628872764880</title>
<path fill="none" stroke="#000000" d="M118.1519,-133.3685C118.2972,-123.1925 118.5206,-107.5606 118.7016,-94.8912"/>
<polygon fill="#000000" stroke="#000000" points="122.2034,-94.7806 118.8467,-84.7315 115.2041,-94.6805 122.2034,-94.7806"/>
</g>
<!-- 139628872868816 -->
<g id="node5" class="node">
<title>139628872868816</title>
<polygon fill="#add8e6" stroke="#000000" points="104,-231 50,-231 50,-197 104,-197 104,-231"/>
<text text-anchor="middle" x="77" y="-217.4" font-family="Times,serif" font-size="12.00" fill="#000000">w0.bias</text>
<text text-anchor="middle" x="77" y="-204.4" font-family="Times,serif" font-size="12.00" fill="#000000"> (100)</text>
</g>
<!-- 139628872868816&#45;&gt;139628872764368 -->
<g id="edge4" class="edge">
<title>139628872868816&#45;&gt;139628872764368</title>
<path fill="none" stroke="#000000" d="M87.1348,-196.6966C93.0172,-186.6535 100.4448,-173.9722 106.5395,-163.5667"/>
<polygon fill="#000000" stroke="#000000" points="109.6454,-165.189 111.6794,-154.7913 103.6052,-161.6512 109.6454,-165.189"/>
</g>
<!-- 139628872868880 -->
<g id="node6" class="node">
<title>139628872868880</title>
<polygon fill="#d3d3d3" stroke="#000000" points="195.5,-224.5 122.5,-224.5 122.5,-203.5 195.5,-203.5 195.5,-224.5"/>
<text text-anchor="middle" x="159" y="-210.9" font-family="Times,serif" font-size="12.00" fill="#000000">TBackward</text>
</g>
<!-- 139628872868880&#45;&gt;139628872764368 -->
<g id="edge5" class="edge">
<title>139628872868880&#45;&gt;139628872764368</title>
<path fill="none" stroke="#000000" d="M152.773,-203.3685C146.5719,-192.7814 136.9119,-176.2886 129.3456,-163.3705"/>
<polygon fill="#000000" stroke="#000000" points="132.3598,-161.5915 124.2856,-154.7315 126.3196,-165.1293 132.3598,-161.5915"/>
</g>
<!-- 139628872869072 -->
<g id="node7" class="node">
<title>139628872869072</title>
<polygon fill="#add8e6" stroke="#000000" points="196.5,-301 121.5,-301 121.5,-267 196.5,-267 196.5,-301"/>
<text text-anchor="middle" x="159" y="-287.4" font-family="Times,serif" font-size="12.00" fill="#000000">w0.weight</text>
<text text-anchor="middle" x="159" y="-274.4" font-family="Times,serif" font-size="12.00" fill="#000000"> (100, 1000)</text>
</g>
<!-- 139628872869072&#45;&gt;139628872868880 -->
<g id="edge6" class="edge">
<title>139628872869072&#45;&gt;139628872868880</title>
<path fill="none" stroke="#000000" d="M159,-266.6966C159,-257.0634 159,-245.003 159,-234.8518"/>
<polygon fill="#000000" stroke="#000000" points="162.5001,-234.7912 159,-224.7913 155.5001,-234.7913 162.5001,-234.7912"/>
</g>
<!-- 139628872868496 -->
<g id="node8" class="node">
<title>139628872868496</title>
<polygon fill="#d3d3d3" stroke="#000000" points="258.5,-84.5 185.5,-84.5 185.5,-63.5 258.5,-63.5 258.5,-84.5"/>
<text text-anchor="middle" x="222" y="-70.9" font-family="Times,serif" font-size="12.00" fill="#000000">TBackward</text>
</g>
<!-- 139628872868496&#45;&gt;139628872764944 -->
<g id="edge7" class="edge">
<title>139628872868496&#45;&gt;139628872764944</title>
<path fill="none" stroke="#000000" d="M204.5275,-63.2281C188.1519,-53.1325 163.4682,-37.9149 144.8209,-26.4187"/>
<polygon fill="#000000" stroke="#000000" points="146.5636,-23.3814 136.2145,-21.1128 142.8901,-29.3401 146.5636,-23.3814"/>
</g>
<!-- 139628872868688 -->
<g id="node9" class="node">
<title>139628872868688</title>
<polygon fill="#add8e6" stroke="#000000" points="255.5,-161 188.5,-161 188.5,-127 255.5,-127 255.5,-161"/>
<text text-anchor="middle" x="222" y="-147.4" font-family="Times,serif" font-size="12.00" fill="#000000">w1.weight</text>
<text text-anchor="middle" x="222" y="-134.4" font-family="Times,serif" font-size="12.00" fill="#000000"> (10, 100)</text>
</g>
<!-- 139628872868688&#45;&gt;139628872868496 -->
<g id="edge8" class="edge">
<title>139628872868688&#45;&gt;139628872868496</title>
<path fill="none" stroke="#000000" d="M222,-126.6966C222,-117.0634 222,-105.003 222,-94.8518"/>
<polygon fill="#000000" stroke="#000000" points="225.5001,-94.7912 222,-84.7913 218.5001,-94.7913 225.5001,-94.7912"/>
</g>
</g>
</svg>
