<?xml version="1.0" encoding="UTF-8" standalone="no"?>
<!DOCTYPE svg PUBLIC "-//W3C//DTD SVG 1.1//EN"
 "http://www.w3.org/Graphics/SVG/1.1/DTD/svg11.dtd">
<!-- Generated by graphviz version 2.40.1 (20161225.0304)
 -->
<!-- Title: %3 Pages: 1 -->
<svg width="198pt" height="299pt"
 viewBox="0.00 0.00 198.00 299.00" xmlns="http://www.w3.org/2000/svg" xmlns:xlink="http://www.w3.org/1999/xlink">
<g id="graph0" class="graph" transform="scale(1 1) rotate(0) translate(4 295)">
<title>%3</title>
<polygon fill="#ffffff" stroke="transparent" points="-4,4 -4,-295 194,-295 194,4 -4,4"/>
<!-- 139697001807568 -->
<g id="node1" class="node">
<title>139697001807568</title>
<polygon fill="#caff70" stroke="#000000" points="163,-21 71,-21 71,0 163,0 163,-21"/>
<text text-anchor="middle" x="117" y="-7.4" font-family="Times,serif" font-size="12.00" fill="#000000">AddBackward0</text>
</g>
<!-- 139697001807760 -->
<g id="node2" class="node">
<title>139697001807760</title>
<polygon fill="#d3d3d3" stroke="#000000" points="117.5,-85 26.5,-85 26.5,-64 117.5,-64 117.5,-85"/>
<text text-anchor="middle" x="72" y="-71.4" font-family="Times,serif" font-size="12.00" fill="#000000">MulBackward0</text>
</g>
<!-- 139697001807760&#45;&gt;139697001807568 -->
<g id="edge1" class="edge">
<title>139697001807760&#45;&gt;139697001807568</title>
<path fill="none" stroke="#000000" d="M79.4308,-63.9317C85.9705,-54.6309 95.6534,-40.8597 103.5509,-29.6276"/>
<polygon fill="#000000" stroke="#000000" points="106.519,-31.4914 109.4077,-21.2979 100.7928,-27.4651 106.519,-31.4914"/>
</g>
<!-- 139697001861648 -->
<g id="node3" class="node">
<title>139697001861648</title>
<polygon fill="#add8e6" stroke="#000000" points="54,-163 0,-163 0,-128 54,-128 54,-163"/>
<text text-anchor="middle" x="27" y="-135.4" font-family="Times,serif" font-size="12.00" fill="#000000"> (1)</text>
</g>
<!-- 139697001861648&#45;&gt;139697001807760 -->
<g id="edge2" class="edge">
<title>139697001861648&#45;&gt;139697001807760</title>
<path fill="none" stroke="#000000" d="M38.1236,-127.9494C44.7263,-117.5318 53.1027,-104.3157 59.8742,-93.6318"/>
<polygon fill="#000000" stroke="#000000" points="62.9296,-95.3489 65.3268,-85.0288 57.0172,-91.6016 62.9296,-95.3489"/>
</g>
<!-- 139697001862224 -->
<g id="node4" class="node">
<title>139697001862224</title>
<polygon fill="#d3d3d3" stroke="#000000" points="163.5,-156 72.5,-156 72.5,-135 163.5,-135 163.5,-156"/>
<text text-anchor="middle" x="118" y="-142.4" font-family="Times,serif" font-size="12.00" fill="#000000">MulBackward0</text>
</g>
<!-- 139697001862224&#45;&gt;139697001807760 -->
<g id="edge3" class="edge">
<title>139697001862224&#45;&gt;139697001807760</title>
<path fill="none" stroke="#000000" d="M111.0136,-134.7166C104.0563,-123.9782 93.2182,-107.2498 84.7292,-94.1472"/>
<polygon fill="#000000" stroke="#000000" points="87.427,-91.8743 79.0522,-85.3849 81.5522,-95.6805 87.427,-91.8743"/>
</g>
<!-- 139697001861840 -->
<g id="node5" class="node">
<title>139697001861840</title>
<polygon fill="#d3d3d3" stroke="#000000" points="164,-220 72,-220 72,-199 164,-199 164,-220"/>
<text text-anchor="middle" x="118" y="-206.4" font-family="Times,serif" font-size="12.00" fill="#000000">AddBackward0</text>
</g>
<!-- 139697001861840&#45;&gt;139697001862224 -->
<g id="edge4" class="edge">
<title>139697001861840&#45;&gt;139697001862224</title>
<path fill="none" stroke="#000000" d="M118,-198.9317C118,-190.0913 118,-177.2122 118,-166.3135"/>
<polygon fill="#000000" stroke="#000000" points="121.5001,-166.2979 118,-156.2979 114.5001,-166.2979 121.5001,-166.2979"/>
</g>
<!-- 139697001861584 -->
<g id="node6" class="node">
<title>139697001861584</title>
<polygon fill="#add8e6" stroke="#000000" points="109,-291 55,-291 55,-256 109,-256 109,-291"/>
<text text-anchor="middle" x="82" y="-263.4" font-family="Times,serif" font-size="12.00" fill="#000000"> (1)</text>
</g>
<!-- 139697001861584&#45;&gt;139697001861840 -->
<g id="edge5" class="edge">
<title>139697001861584&#45;&gt;139697001861840</title>
<path fill="none" stroke="#000000" d="M92.028,-255.6724C96.6838,-247.3956 102.2312,-237.5334 107.0015,-229.053"/>
<polygon fill="#000000" stroke="#000000" points="110.1159,-230.6551 111.9681,-220.2234 104.0149,-227.2233 110.1159,-230.6551"/>
</g>
<!-- 139697001862032 -->
<g id="node7" class="node">
<title>139697001862032</title>
<polygon fill="#add8e6" stroke="#000000" points="181,-291 127,-291 127,-256 181,-256 181,-291"/>
<text text-anchor="middle" x="154" y="-263.4" font-family="Times,serif" font-size="12.00" fill="#000000"> (1)</text>
</g>
<!-- 139697001862032&#45;&gt;139697001861840 -->
<g id="edge6" class="edge">
<title>139697001862032&#45;&gt;139697001861840</title>
<path fill="none" stroke="#000000" d="M143.972,-255.6724C139.3162,-247.3956 133.7688,-237.5334 128.9985,-229.053"/>
<polygon fill="#000000" stroke="#000000" points="131.9851,-227.2233 124.0319,-220.2234 125.8841,-230.6551 131.9851,-227.2233"/>
</g>
<!-- 139697001861264 -->
<g id="node8" class="node">
<title>139697001861264</title>
<polygon fill="#add8e6" stroke="#000000" points="190,-92 136,-92 136,-57 190,-57 190,-92"/>
<text text-anchor="middle" x="163" y="-64.4" font-family="Times,serif" font-size="12.00" fill="#000000"> (1)</text>
</g>
<!-- 139697001861264&#45;&gt;139697001807568 -->
<g id="edge7" class="edge">
<title>139697001861264&#45;&gt;139697001807568</title>
<path fill="none" stroke="#000000" d="M150.1864,-56.6724C144.1095,-48.2176 136.8436,-38.1085 130.6618,-29.5078"/>
<polygon fill="#000000" stroke="#000000" points="133.3859,-27.3009 124.7075,-21.2234 127.7018,-31.3863 133.3859,-27.3009"/>
</g>
</g>
</svg>
