<?xml version="1.0" encoding="UTF-8" standalone="no"?>
<!DOCTYPE svg PUBLIC "-//W3C//DTD SVG 1.1//EN"
 "http://www.w3.org/Graphics/SVG/1.1/DTD/svg11.dtd">
<!-- Generated by graphviz version 2.40.1 (20161225.0304)
 -->
<!-- Title: %3 Pages: 1 -->
<svg width="199pt" height="313pt"
 viewBox="0.00 0.00 199.00 313.00" xmlns="http://www.w3.org/2000/svg" xmlns:xlink="http://www.w3.org/1999/xlink">
<g id="graph0" class="graph" transform="scale(1 1) rotate(0) translate(4 309)">
<title>%3</title>
<polygon fill="#ffffff" stroke="transparent" points="-4,4 -4,-309 195,-309 195,4 -4,4"/>
<!-- 139698897158480 -->
<g id="node1" class="node">
<title>139698897158480</title>
<polygon fill="#caff70" stroke="#000000" points="163,-21 71,-21 71,0 163,0 163,-21"/>
<text text-anchor="middle" x="117" y="-7.4" font-family="Times,serif" font-size="12.00" fill="#000000">AddBackward0</text>
</g>
<!-- 139698894904656 -->
<g id="node2" class="node">
<title>139698894904656</title>
<polygon fill="#d3d3d3" stroke="#000000" points="117.5,-85 26.5,-85 26.5,-64 117.5,-64 117.5,-85"/>
<text text-anchor="middle" x="72" y="-71.4" font-family="Times,serif" font-size="12.00" fill="#000000">MulBackward0</text>
</g>
<!-- 139698894904656&#45;&gt;139698897158480 -->
<g id="edge1" class="edge">
<title>139698894904656&#45;&gt;139698897158480</title>
<path fill="none" stroke="#000000" d="M79.4308,-63.9317C85.9705,-54.6309 95.6534,-40.8597 103.5509,-29.6276"/>
<polygon fill="#000000" stroke="#000000" points="106.519,-31.4914 109.4077,-21.2979 100.7928,-27.4651 106.519,-31.4914"/>
</g>
<!-- 139698897158608 -->
<g id="node3" class="node">
<title>139698897158608</title>
<polygon fill="#add8e6" stroke="#000000" points="54,-163 0,-163 0,-128 54,-128 54,-163"/>
<text text-anchor="middle" x="27" y="-135.4" font-family="Times,serif" font-size="12.00" fill="#000000"> (1)</text>
</g>
<!-- 139698897158608&#45;&gt;139698894904656 -->
<g id="edge2" class="edge">
<title>139698897158608&#45;&gt;139698894904656</title>
<path fill="none" stroke="#000000" d="M38.1236,-127.9494C44.7263,-117.5318 53.1027,-104.3157 59.8742,-93.6318"/>
<polygon fill="#000000" stroke="#000000" points="62.9296,-95.3489 65.3268,-85.0288 57.0172,-91.6016 62.9296,-95.3489"/>
</g>
<!-- 139697001807248 -->
<g id="node4" class="node">
<title>139697001807248</title>
<polygon fill="#d3d3d3" stroke="#000000" points="163.5,-156 72.5,-156 72.5,-135 163.5,-135 163.5,-156"/>
<text text-anchor="middle" x="118" y="-142.4" font-family="Times,serif" font-size="12.00" fill="#000000">MulBackward0</text>
</g>
<!-- 139697001807248&#45;&gt;139698894904656 -->
<g id="edge3" class="edge">
<title>139697001807248&#45;&gt;139698894904656</title>
<path fill="none" stroke="#000000" d="M111.0136,-134.7166C104.0563,-123.9782 93.2182,-107.2498 84.7292,-94.1472"/>
<polygon fill="#000000" stroke="#000000" points="87.427,-91.8743 79.0522,-85.3849 81.5522,-95.6805 87.427,-91.8743"/>
</g>
<!-- 139697001807312 -->
<g id="node5" class="node">
<title>139697001807312</title>
<polygon fill="#d3d3d3" stroke="#000000" points="119,-227 27,-227 27,-206 119,-206 119,-227"/>
<text text-anchor="middle" x="73" y="-213.4" font-family="Times,serif" font-size="12.00" fill="#000000">AddBackward0</text>
</g>
<!-- 139697001807312&#45;&gt;139697001807248 -->
<g id="edge4" class="edge">
<title>139697001807312&#45;&gt;139697001807248</title>
<path fill="none" stroke="#000000" d="M79.8345,-205.7166C86.6406,-194.9782 97.2431,-178.2498 105.5475,-165.1472"/>
<polygon fill="#000000" stroke="#000000" points="108.704,-166.705 111.1011,-156.3849 102.7915,-162.9576 108.704,-166.705"/>
</g>
<!-- 139697001807440 -->
<g id="node6" class="node">
<title>139697001807440</title>
<polygon fill="#add8e6" stroke="#000000" points="64,-305 10,-305 10,-270 64,-270 64,-305"/>
<text text-anchor="middle" x="37" y="-277.4" font-family="Times,serif" font-size="12.00" fill="#000000"> (1)</text>
</g>
<!-- 139697001807440&#45;&gt;139697001807312 -->
<g id="edge5" class="edge">
<title>139697001807440&#45;&gt;139697001807312</title>
<path fill="none" stroke="#000000" d="M45.8989,-269.9494C51.1277,-259.6371 57.747,-246.5824 63.1348,-235.9563"/>
<polygon fill="#000000" stroke="#000000" points="66.2607,-237.5307 67.6614,-227.0288 60.0174,-234.365 66.2607,-237.5307"/>
</g>
<!-- 139697001807504 -->
<g id="node7" class="node">
<title>139697001807504</title>
<polygon fill="#add8e6" stroke="#000000" points="136,-305 82,-305 82,-270 136,-270 136,-305"/>
<text text-anchor="middle" x="109" y="-277.4" font-family="Times,serif" font-size="12.00" fill="#000000"> (1)</text>
</g>
<!-- 139697001807504&#45;&gt;139697001807312 -->
<g id="edge6" class="edge">
<title>139697001807504&#45;&gt;139697001807312</title>
<path fill="none" stroke="#000000" d="M100.1011,-269.9494C94.8723,-259.6371 88.253,-246.5824 82.8652,-235.9563"/>
<polygon fill="#000000" stroke="#000000" points="85.9826,-234.365 78.3386,-227.0288 79.7393,-237.5307 85.9826,-234.365"/>
</g>
<!-- 139697001806672 -->
<g id="node8" class="node">
<title>139697001806672</title>
<polygon fill="#add8e6" stroke="#000000" points="191,-234 137,-234 137,-199 191,-199 191,-234"/>
<text text-anchor="middle" x="164" y="-206.4" font-family="Times,serif" font-size="12.00" fill="#000000"> (1)</text>
</g>
<!-- 139697001806672&#45;&gt;139697001807248 -->
<g id="edge7" class="edge">
<title>139697001806672&#45;&gt;139697001807248</title>
<path fill="none" stroke="#000000" d="M152.6292,-198.9494C145.8798,-188.5318 137.3172,-175.3157 130.3953,-164.6318"/>
<polygon fill="#000000" stroke="#000000" points="133.1963,-162.5183 124.8215,-156.0288 127.3216,-166.3245 133.1963,-162.5183"/>
</g>
<!-- 139698897158352 -->
<g id="node9" class="node">
<title>139698897158352</title>
<polygon fill="#add8e6" stroke="#000000" points="190,-92 136,-92 136,-57 190,-57 190,-92"/>
<text text-anchor="middle" x="163" y="-64.4" font-family="Times,serif" font-size="12.00" fill="#000000"> (1)</text>
</g>
<!-- 139698897158352&#45;&gt;139698897158480 -->
<g id="edge8" class="edge">
<title>139698897158352&#45;&gt;139698897158480</title>
<path fill="none" stroke="#000000" d="M150.1864,-56.6724C144.1095,-48.2176 136.8436,-38.1085 130.6618,-29.5078"/>
<polygon fill="#000000" stroke="#000000" points="133.3859,-27.3009 124.7075,-21.2234 127.7018,-31.3863 133.3859,-27.3009"/>
</g>
</g>
</svg>
