<?xml version="1.0" encoding="UTF-8" standalone="no"?>
<!DOCTYPE svg PUBLIC "-//W3C//DTD SVG 1.1//EN"
 "http://www.w3.org/Graphics/SVG/1.1/DTD/svg11.dtd">
<!-- Generated by graphviz version 2.40.1 (20161225.0304)
 -->
<!-- Title: %3 Pages: 1 -->
<svg width="332pt" height="417pt"
 viewBox="0.00 0.00 332.00 417.00" xmlns="http://www.w3.org/2000/svg" xmlns:xlink="http://www.w3.org/1999/xlink">
<g id="graph0" class="graph" transform="scale(1 1) rotate(0) translate(4 413)">
<title>%3</title>
<polygon fill="#ffffff" stroke="transparent" points="-4,4 -4,-413 328,-413 328,4 -4,4"/>
<!-- 140340424867456 -->
<g id="node1" class="node">
<title>140340424867456</title>
<polygon fill="#caff70" stroke="#000000" points="243.5,-31 189.5,-31 189.5,0 243.5,0 243.5,-31"/>
<text text-anchor="middle" x="216.5" y="-7" font-family="monospace" font-size="10.00" fill="#000000"> (1)</text>
</g>
<!-- 140340424830448 -->
<g id="node2" class="node">
<title>140340424830448</title>
<polygon fill="#d3d3d3" stroke="#000000" points="261,-86 172,-86 172,-67 261,-67 261,-86"/>
<text text-anchor="middle" x="216.5" y="-74" font-family="monospace" font-size="10.00" fill="#000000">AddBackward0</text>
</g>
<!-- 140340424830448&#45;&gt;140340424867456 -->
<g id="edge14" class="edge">
<title>140340424830448&#45;&gt;140340424867456</title>
<path fill="none" stroke="#000000" d="M216.5,-66.9688C216.5,-60.1289 216.5,-50.5621 216.5,-41.5298"/>
<polygon fill="#000000" stroke="#000000" points="220.0001,-41.3678 216.5,-31.3678 213.0001,-41.3678 220.0001,-41.3678"/>
</g>
<!-- 140340424829920 -->
<g id="node3" class="node">
<title>140340424829920</title>
<polygon fill="#d3d3d3" stroke="#000000" points="205,-141 116,-141 116,-122 205,-122 205,-141"/>
<text text-anchor="middle" x="160.5" y="-129" font-family="monospace" font-size="10.00" fill="#000000">MulBackward0</text>
</g>
<!-- 140340424829920&#45;&gt;140340424830448 -->
<g id="edge1" class="edge">
<title>140340424829920&#45;&gt;140340424830448</title>
<path fill="none" stroke="#000000" d="M170.2545,-121.9197C178.1865,-114.1293 189.5788,-102.9405 199.0712,-93.6176"/>
<polygon fill="#000000" stroke="#000000" points="201.7982,-95.845 206.4802,-86.3408 196.8932,-90.8509 201.7982,-95.845"/>
</g>
<!-- 140340424830400 -->
<g id="node4" class="node">
<title>140340424830400</title>
<polygon fill="#d3d3d3" stroke="#000000" points="110,-202 9,-202 9,-183 110,-183 110,-202"/>
<text text-anchor="middle" x="59.5" y="-190" font-family="monospace" font-size="10.00" fill="#000000">AccumulateGrad</text>
</g>
<!-- 140340424830400&#45;&gt;140340424829920 -->
<g id="edge2" class="edge">
<title>140340424830400&#45;&gt;140340424829920</title>
<path fill="none" stroke="#000000" d="M75.2813,-182.9688C91.4921,-173.178 116.9541,-157.8 135.829,-146.4003"/>
<polygon fill="#000000" stroke="#000000" points="137.7458,-149.3315 144.4962,-141.1656 134.1268,-143.3396 137.7458,-149.3315"/>
</g>
<!-- 140340424703552 -->
<g id="node5" class="node">
<title>140340424703552</title>
<polygon fill="#add8e6" stroke="#000000" points="86.5,-275 32.5,-275 32.5,-244 86.5,-244 86.5,-275"/>
<text text-anchor="middle" x="59.5" y="-251" font-family="monospace" font-size="10.00" fill="#000000"> (1)</text>
</g>
<!-- 140340424703552&#45;&gt;140340424830400 -->
<g id="edge3" class="edge">
<title>140340424703552&#45;&gt;140340424830400</title>
<path fill="none" stroke="#000000" d="M59.5,-243.9604C59.5,-234.6356 59.5,-222.6748 59.5,-212.6317"/>
<polygon fill="#000000" stroke="#000000" points="63.0001,-212.35 59.5,-202.3501 56.0001,-212.3501 63.0001,-212.35"/>
</g>
<!-- 140340424829824 -->
<g id="node6" class="node">
<title>140340424829824</title>
<polygon fill="#d3d3d3" stroke="#000000" points="217,-202 128,-202 128,-183 217,-183 217,-202"/>
<text text-anchor="middle" x="172.5" y="-190" font-family="monospace" font-size="10.00" fill="#000000">MulBackward0</text>
</g>
<!-- 140340424829824&#45;&gt;140340424829920 -->
<g id="edge4" class="edge">
<title>140340424829824&#45;&gt;140340424829920</title>
<path fill="none" stroke="#000000" d="M170.625,-182.9688C168.9616,-174.5131 166.4784,-161.8901 164.3875,-151.2615"/>
<polygon fill="#000000" stroke="#000000" points="167.7659,-150.302 162.4014,-141.1656 160.8976,-151.6532 167.7659,-150.302"/>
</g>
<!-- 140340424830496 -->
<g id="node7" class="node">
<title>140340424830496</title>
<polygon fill="#d3d3d3" stroke="#000000" points="205,-269 116,-269 116,-250 205,-250 205,-269"/>
<text text-anchor="middle" x="160.5" y="-257" font-family="monospace" font-size="10.00" fill="#000000">AddBackward0</text>
</g>
<!-- 140340424830496&#45;&gt;140340424829824 -->
<g id="edge5" class="edge">
<title>140340424830496&#45;&gt;140340424829824</title>
<path fill="none" stroke="#000000" d="M162.2193,-249.9005C163.9837,-240.0495 166.7785,-224.4451 169.009,-211.9912"/>
<polygon fill="#000000" stroke="#000000" points="172.466,-212.5421 170.7839,-202.0817 165.5756,-211.308 172.466,-212.5421"/>
</g>
<!-- 140340424830736 -->
<g id="node8" class="node">
<title>140340424830736</title>
<polygon fill="#d3d3d3" stroke="#000000" points="101,-336 0,-336 0,-317 101,-317 101,-336"/>
<text text-anchor="middle" x="50.5" y="-324" font-family="monospace" font-size="10.00" fill="#000000">AccumulateGrad</text>
</g>
<!-- 140340424830736&#45;&gt;140340424830496 -->
<g id="edge6" class="edge">
<title>140340424830736&#45;&gt;140340424830496</title>
<path fill="none" stroke="#000000" d="M66.2603,-316.9005C84.4757,-305.8057 114.673,-287.4128 135.9677,-274.4424"/>
<polygon fill="#000000" stroke="#000000" points="138.0491,-277.2728 144.7689,-269.0817 134.4077,-271.2945 138.0491,-277.2728"/>
</g>
<!-- 140342606545472 -->
<g id="node9" class="node">
<title>140342606545472</title>
<polygon fill="#add8e6" stroke="#000000" points="77.5,-409 23.5,-409 23.5,-378 77.5,-378 77.5,-409"/>
<text text-anchor="middle" x="50.5" y="-385" font-family="monospace" font-size="10.00" fill="#000000"> (1)</text>
</g>
<!-- 140342606545472&#45;&gt;140340424830736 -->
<g id="edge7" class="edge">
<title>140342606545472&#45;&gt;140340424830736</title>
<path fill="none" stroke="#000000" d="M50.5,-377.9604C50.5,-368.6356 50.5,-356.6748 50.5,-346.6317"/>
<polygon fill="#000000" stroke="#000000" points="54.0001,-346.35 50.5,-336.3501 47.0001,-346.3501 54.0001,-346.35"/>
</g>
<!-- 140340424830688 -->
<g id="node10" class="node">
<title>140340424830688</title>
<polygon fill="#d3d3d3" stroke="#000000" points="220,-336 119,-336 119,-317 220,-317 220,-336"/>
<text text-anchor="middle" x="169.5" y="-324" font-family="monospace" font-size="10.00" fill="#000000">AccumulateGrad</text>
</g>
<!-- 140340424830688&#45;&gt;140340424830496 -->
<g id="edge8" class="edge">
<title>140340424830688&#45;&gt;140340424830496</title>
<path fill="none" stroke="#000000" d="M168.2105,-316.9005C166.9006,-307.149 164.8334,-291.7597 163.169,-279.3695"/>
<polygon fill="#000000" stroke="#000000" points="166.5873,-278.5266 161.7871,-269.0817 159.6497,-279.4586 166.5873,-278.5266"/>
</g>
<!-- 140342606545664 -->
<g id="node11" class="node">
<title>140342606545664</title>
<polygon fill="#add8e6" stroke="#000000" points="196.5,-409 142.5,-409 142.5,-378 196.5,-378 196.5,-409"/>
<text text-anchor="middle" x="169.5" y="-385" font-family="monospace" font-size="10.00" fill="#000000"> (1)</text>
</g>
<!-- 140342606545664&#45;&gt;140340424830688 -->
<g id="edge9" class="edge">
<title>140342606545664&#45;&gt;140340424830688</title>
<path fill="none" stroke="#000000" d="M169.5,-377.9604C169.5,-368.6356 169.5,-356.6748 169.5,-346.6317"/>
<polygon fill="#000000" stroke="#000000" points="173.0001,-346.35 169.5,-336.3501 166.0001,-346.3501 173.0001,-346.35"/>
</g>
<!-- 140340424830544 -->
<g id="node12" class="node">
<title>140340424830544</title>
<polygon fill="#d3d3d3" stroke="#000000" points="324,-269 223,-269 223,-250 324,-250 324,-269"/>
<text text-anchor="middle" x="273.5" y="-257" font-family="monospace" font-size="10.00" fill="#000000">AccumulateGrad</text>
</g>
<!-- 140340424830544&#45;&gt;140340424829824 -->
<g id="edge10" class="edge">
<title>140340424830544&#45;&gt;140340424829824</title>
<path fill="none" stroke="#000000" d="M259.0292,-249.9005C242.3791,-238.8554 214.826,-220.5776 195.2886,-207.6172"/>
<polygon fill="#000000" stroke="#000000" points="197.212,-204.693 186.944,-202.0817 193.3424,-210.5263 197.212,-204.693"/>
</g>
<!-- 140340424703488 -->
<g id="node13" class="node">
<title>140340424703488</title>
<polygon fill="#add8e6" stroke="#000000" points="300.5,-342 246.5,-342 246.5,-311 300.5,-311 300.5,-342"/>
<text text-anchor="middle" x="273.5" y="-318" font-family="monospace" font-size="10.00" fill="#000000"> (1)</text>
</g>
<!-- 140340424703488&#45;&gt;140340424830544 -->
<g id="edge11" class="edge">
<title>140340424703488&#45;&gt;140340424830544</title>
<path fill="none" stroke="#000000" d="M273.5,-310.9604C273.5,-301.6356 273.5,-289.6748 273.5,-279.6317"/>
<polygon fill="#000000" stroke="#000000" points="277.0001,-279.35 273.5,-269.3501 270.0001,-279.3501 277.0001,-279.35"/>
</g>
<!-- 140340424829776 -->
<g id="node14" class="node">
<title>140340424829776</title>
<polygon fill="#d3d3d3" stroke="#000000" points="324,-141 223,-141 223,-122 324,-122 324,-141"/>
<text text-anchor="middle" x="273.5" y="-129" font-family="monospace" font-size="10.00" fill="#000000">AccumulateGrad</text>
</g>
<!-- 140340424829776&#45;&gt;140340424830448 -->
<g id="edge12" class="edge">
<title>140340424829776&#45;&gt;140340424830448</title>
<path fill="none" stroke="#000000" d="M263.5714,-121.9197C255.4169,-114.0514 243.6697,-102.7164 233.9508,-93.3385"/>
<polygon fill="#000000" stroke="#000000" points="236.3252,-90.7659 226.6987,-86.3408 231.4646,-95.8032 236.3252,-90.7659"/>
</g>
<!-- 140340424623488 -->
<g id="node15" class="node">
<title>140340424623488</title>
<polygon fill="#add8e6" stroke="#000000" points="300.5,-208 246.5,-208 246.5,-177 300.5,-177 300.5,-208"/>
<text text-anchor="middle" x="273.5" y="-184" font-family="monospace" font-size="10.00" fill="#000000"> (1)</text>
</g>
<!-- 140340424623488&#45;&gt;140340424829776 -->
<g id="edge13" class="edge">
<title>140340424623488&#45;&gt;140340424829776</title>
<path fill="none" stroke="#000000" d="M273.5,-176.791C273.5,-169.0249 273.5,-159.5706 273.5,-151.3129"/>
<polygon fill="#000000" stroke="#000000" points="277.0001,-151.0647 273.5,-141.0648 270.0001,-151.0648 277.0001,-151.0647"/>
</g>
</g>
</svg>
