<?xml version="1.0" encoding="UTF-8" standalone="no"?>
<!DOCTYPE svg PUBLIC "-//W3C//DTD SVG 1.1//EN"
 "http://www.w3.org/Graphics/SVG/1.1/DTD/svg11.dtd">
<!-- Generated by graphviz version 2.40.1 (20161225.0304)
 -->
<!-- Title: %3 Pages: 1 -->
<svg width="466pt" height="610pt"
 viewBox="0.00 0.00 466.00 610.00" xmlns="http://www.w3.org/2000/svg" xmlns:xlink="http://www.w3.org/1999/xlink">
<g id="graph0" class="graph" transform="scale(1 1) rotate(0) translate(4 606)">
<title>%3</title>
<polygon fill="#ffffff" stroke="transparent" points="-4,4 -4,-606 462,-606 462,4 -4,4"/>
<!-- 140683708696640 -->
<g id="node1" class="node">
<title>140683708696640</title>
<polygon fill="#caff70" stroke="#000000" points="359.5,-30 305.5,-30 305.5,0 359.5,0 359.5,-30"/>
<text text-anchor="middle" x="332.5" y="-18" font-family="monospace" font-size="10.00" fill="#000000">h</text>
<text text-anchor="middle" x="332.5" y="-7" font-family="monospace" font-size="10.00" fill="#000000"> ()</text>
</g>
<!-- 140681186600464 -->
<g id="node2" class="node">
<title>140681186600464</title>
<polygon fill="#d3d3d3" stroke="#000000" points="377,-85 288,-85 288,-66 377,-66 377,-85"/>
<text text-anchor="middle" x="332.5" y="-73" font-family="monospace" font-size="10.00" fill="#000000">MulBackward0</text>
</g>
<!-- 140681186600464&#45;&gt;140683708696640 -->
<g id="edge19" class="edge">
<title>140681186600464&#45;&gt;140683708696640</title>
<path fill="none" stroke="#000000" d="M332.5,-65.7796C332.5,-58.8654 332.5,-49.2417 332.5,-40.2296"/>
<polygon fill="#000000" stroke="#000000" points="336.0001,-40.1301 332.5,-30.1301 329.0001,-40.1302 336.0001,-40.1301"/>
</g>
<!-- 140681186599552 -->
<g id="node3" class="node">
<title>140681186599552</title>
<polygon fill="#d3d3d3" stroke="#000000" points="395,-140 270,-140 270,-121 395,-121 395,-140"/>
<text text-anchor="middle" x="332.5" y="-128" font-family="monospace" font-size="10.00" fill="#000000">ReciprocalBackward</text>
</g>
<!-- 140681186599552&#45;&gt;140681186600464 -->
<g id="edge1" class="edge">
<title>140681186599552&#45;&gt;140681186600464</title>
<path fill="none" stroke="#000000" d="M332.5,-120.9197C332.5,-113.9083 332.5,-104.1442 332.5,-95.4652"/>
<polygon fill="#000000" stroke="#000000" points="336.0001,-95.3408 332.5,-85.3408 329.0001,-95.3409 336.0001,-95.3408"/>
</g>
<!-- 140681186600944 -->
<g id="node4" class="node">
<title>140681186600944</title>
<polygon fill="#d3d3d3" stroke="#000000" points="377,-195 288,-195 288,-176 377,-176 377,-195"/>
<text text-anchor="middle" x="332.5" y="-183" font-family="monospace" font-size="10.00" fill="#000000">AddBackward0</text>
</g>
<!-- 140681186600944&#45;&gt;140681186599552 -->
<g id="edge2" class="edge">
<title>140681186600944&#45;&gt;140681186599552</title>
<path fill="none" stroke="#000000" d="M332.5,-175.9197C332.5,-168.9083 332.5,-159.1442 332.5,-150.4652"/>
<polygon fill="#000000" stroke="#000000" points="336.0001,-150.3408 332.5,-140.3408 329.0001,-150.3409 336.0001,-150.3408"/>
</g>
<!-- 140681186600128 -->
<g id="node5" class="node">
<title>140681186600128</title>
<polygon fill="#d3d3d3" stroke="#000000" points="374,-250 291,-250 291,-231 374,-231 374,-250"/>
<text text-anchor="middle" x="332.5" y="-238" font-family="monospace" font-size="10.00" fill="#000000">ExpBackward</text>
</g>
<!-- 140681186600128&#45;&gt;140681186600944 -->
<g id="edge3" class="edge">
<title>140681186600128&#45;&gt;140681186600944</title>
<path fill="none" stroke="#000000" d="M332.5,-230.9197C332.5,-223.9083 332.5,-214.1442 332.5,-205.4652"/>
<polygon fill="#000000" stroke="#000000" points="336.0001,-205.3408 332.5,-195.3408 329.0001,-205.3409 336.0001,-205.3408"/>
</g>
<!-- 140681186599840 -->
<g id="node6" class="node">
<title>140681186599840</title>
<polygon fill="#d3d3d3" stroke="#000000" points="374,-305 291,-305 291,-286 374,-286 374,-305"/>
<text text-anchor="middle" x="332.5" y="-293" font-family="monospace" font-size="10.00" fill="#000000">NegBackward</text>
</g>
<!-- 140681186599840&#45;&gt;140681186600128 -->
<g id="edge4" class="edge">
<title>140681186599840&#45;&gt;140681186600128</title>
<path fill="none" stroke="#000000" d="M332.5,-285.9197C332.5,-278.9083 332.5,-269.1442 332.5,-260.4652"/>
<polygon fill="#000000" stroke="#000000" points="336.0001,-260.3408 332.5,-250.3408 329.0001,-260.3409 336.0001,-260.3408"/>
</g>
<!-- 140681186599600 -->
<g id="node7" class="node">
<title>140681186599600</title>
<polygon fill="#d3d3d3" stroke="#000000" points="377,-360 288,-360 288,-341 377,-341 377,-360"/>
<text text-anchor="middle" x="332.5" y="-348" font-family="monospace" font-size="10.00" fill="#000000">AddBackward0</text>
</g>
<!-- 140681186599600&#45;&gt;140681186599840 -->
<g id="edge5" class="edge">
<title>140681186599600&#45;&gt;140681186599840</title>
<path fill="none" stroke="#000000" d="M332.5,-340.9197C332.5,-333.9083 332.5,-324.1442 332.5,-315.4652"/>
<polygon fill="#000000" stroke="#000000" points="336.0001,-315.3408 332.5,-305.3408 329.0001,-315.3409 336.0001,-315.3408"/>
</g>
<!-- 140681186601088 -->
<g id="node8" class="node">
<title>140681186601088</title>
<polygon fill="#d3d3d3" stroke="#000000" points="321,-415 232,-415 232,-396 321,-396 321,-415"/>
<text text-anchor="middle" x="276.5" y="-403" font-family="monospace" font-size="10.00" fill="#000000">AddBackward0</text>
</g>
<!-- 140681186601088&#45;&gt;140681186599600 -->
<g id="edge6" class="edge">
<title>140681186601088&#45;&gt;140681186599600</title>
<path fill="none" stroke="#000000" d="M286.2545,-395.9197C294.1865,-388.1293 305.5788,-376.9405 315.0712,-367.6176"/>
<polygon fill="#000000" stroke="#000000" points="317.7982,-369.845 322.4802,-360.3408 312.8932,-364.8509 317.7982,-369.845"/>
</g>
<!-- 140681186601232 -->
<g id="node9" class="node">
<title>140681186601232</title>
<polygon fill="#d3d3d3" stroke="#000000" points="214,-475.5 125,-475.5 125,-456.5 214,-456.5 214,-475.5"/>
<text text-anchor="middle" x="169.5" y="-463.5" font-family="monospace" font-size="10.00" fill="#000000">MulBackward0</text>
</g>
<!-- 140681186601232&#45;&gt;140681186601088 -->
<g id="edge7" class="edge">
<title>140681186601232&#45;&gt;140681186601088</title>
<path fill="none" stroke="#000000" d="M186.6914,-456.2796C203.9289,-446.5332 230.6877,-431.4032 250.5169,-420.1914"/>
<polygon fill="#000000" stroke="#000000" points="252.3691,-423.1649 259.3513,-415.1962 248.9237,-417.0715 252.3691,-423.1649"/>
</g>
<!-- 140681186601424 -->
<g id="node10" class="node">
<title>140681186601424</title>
<polygon fill="#d3d3d3" stroke="#000000" points="101,-536 0,-536 0,-517 101,-517 101,-536"/>
<text text-anchor="middle" x="50.5" y="-524" font-family="monospace" font-size="10.00" fill="#000000">AccumulateGrad</text>
</g>
<!-- 140681186601424&#45;&gt;140681186601232 -->
<g id="edge8" class="edge">
<title>140681186601424&#45;&gt;140681186601232</title>
<path fill="none" stroke="#000000" d="M69.3559,-516.9136C88.8531,-507.0012 119.5035,-491.4184 141.7632,-480.1015"/>
<polygon fill="#000000" stroke="#000000" points="143.4044,-483.1935 150.7323,-475.5416 140.232,-476.9536 143.4044,-483.1935"/>
</g>
<!-- 140681334599808 -->
<g id="node11" class="node">
<title>140681334599808</title>
<polygon fill="#add8e6" stroke="#000000" points="77.5,-602 23.5,-602 23.5,-572 77.5,-572 77.5,-602"/>
<text text-anchor="middle" x="50.5" y="-590" font-family="monospace" font-size="10.00" fill="#000000">w0</text>
<text text-anchor="middle" x="50.5" y="-579" font-family="monospace" font-size="10.00" fill="#000000"> ()</text>
</g>
<!-- 140681334599808&#45;&gt;140681186601424 -->
<g id="edge9" class="edge">
<title>140681334599808&#45;&gt;140681186601424</title>
<path fill="none" stroke="#000000" d="M50.5,-571.7333C50.5,-564.0322 50.5,-554.5977 50.5,-546.3414"/>
<polygon fill="#000000" stroke="#000000" points="54.0001,-546.0864 50.5,-536.0864 47.0001,-546.0864 54.0001,-546.0864"/>
</g>
<!-- 140681186601328 -->
<g id="node12" class="node">
<title>140681186601328</title>
<polygon fill="#d3d3d3" stroke="#000000" points="220,-536 119,-536 119,-517 220,-517 220,-536"/>
<text text-anchor="middle" x="169.5" y="-524" font-family="monospace" font-size="10.00" fill="#000000">AccumulateGrad</text>
</g>
<!-- 140681186601328&#45;&gt;140681186601232 -->
<g id="edge10" class="edge">
<title>140681186601328&#45;&gt;140681186601232</title>
<path fill="none" stroke="#000000" d="M169.5,-516.7796C169.5,-508.5376 169.5,-496.4457 169.5,-486.129"/>
<polygon fill="#000000" stroke="#000000" points="173.0001,-485.8972 169.5,-475.8972 166.0001,-485.8973 173.0001,-485.8972"/>
</g>
<!-- 140681334599872 -->
<g id="node13" class="node">
<title>140681334599872</title>
<polygon fill="#add8e6" stroke="#000000" points="196.5,-602 142.5,-602 142.5,-572 196.5,-572 196.5,-602"/>
<text text-anchor="middle" x="169.5" y="-590" font-family="monospace" font-size="10.00" fill="#000000">x0</text>
<text text-anchor="middle" x="169.5" y="-579" font-family="monospace" font-size="10.00" fill="#000000"> ()</text>
</g>
<!-- 140681334599872&#45;&gt;140681186601328 -->
<g id="edge11" class="edge">
<title>140681334599872&#45;&gt;140681186601328</title>
<path fill="none" stroke="#000000" d="M169.5,-571.7333C169.5,-564.0322 169.5,-554.5977 169.5,-546.3414"/>
<polygon fill="#000000" stroke="#000000" points="173.0001,-546.0864 169.5,-536.0864 166.0001,-546.0864 173.0001,-546.0864"/>
</g>
<!-- 140681186601184 -->
<g id="node14" class="node">
<title>140681186601184</title>
<polygon fill="#d3d3d3" stroke="#000000" points="333,-475.5 244,-475.5 244,-456.5 333,-456.5 333,-475.5"/>
<text text-anchor="middle" x="288.5" y="-463.5" font-family="monospace" font-size="10.00" fill="#000000">MulBackward0</text>
</g>
<!-- 140681186601184&#45;&gt;140681186601088 -->
<g id="edge12" class="edge">
<title>140681186601184&#45;&gt;140681186601088</title>
<path fill="none" stroke="#000000" d="M286.572,-456.2796C284.9198,-447.9499 282.4877,-435.688 280.4274,-425.3004"/>
<polygon fill="#000000" stroke="#000000" points="283.8419,-424.5252 278.4631,-415.3972 276.9756,-425.8871 283.8419,-424.5252"/>
</g>
<!-- 140681186601520 -->
<g id="node15" class="node">
<title>140681186601520</title>
<polygon fill="#d3d3d3" stroke="#000000" points="339,-536 238,-536 238,-517 339,-517 339,-536"/>
<text text-anchor="middle" x="288.5" y="-524" font-family="monospace" font-size="10.00" fill="#000000">AccumulateGrad</text>
</g>
<!-- 140681186601520&#45;&gt;140681186601184 -->
<g id="edge13" class="edge">
<title>140681186601520&#45;&gt;140681186601184</title>
<path fill="none" stroke="#000000" d="M288.5,-516.7796C288.5,-508.5376 288.5,-496.4457 288.5,-486.129"/>
<polygon fill="#000000" stroke="#000000" points="292.0001,-485.8972 288.5,-475.8972 285.0001,-485.8973 292.0001,-485.8972"/>
</g>
<!-- 140681329416128 -->
<g id="node16" class="node">
<title>140681329416128</title>
<polygon fill="#add8e6" stroke="#000000" points="315.5,-602 261.5,-602 261.5,-572 315.5,-572 315.5,-602"/>
<text text-anchor="middle" x="288.5" y="-590" font-family="monospace" font-size="10.00" fill="#000000">w1</text>
<text text-anchor="middle" x="288.5" y="-579" font-family="monospace" font-size="10.00" fill="#000000"> ()</text>
</g>
<!-- 140681329416128&#45;&gt;140681186601520 -->
<g id="edge14" class="edge">
<title>140681329416128&#45;&gt;140681186601520</title>
<path fill="none" stroke="#000000" d="M288.5,-571.7333C288.5,-564.0322 288.5,-554.5977 288.5,-546.3414"/>
<polygon fill="#000000" stroke="#000000" points="292.0001,-546.0864 288.5,-536.0864 285.0001,-546.0864 292.0001,-546.0864"/>
</g>
<!-- 140681186601472 -->
<g id="node17" class="node">
<title>140681186601472</title>
<polygon fill="#d3d3d3" stroke="#000000" points="458,-536 357,-536 357,-517 458,-517 458,-536"/>
<text text-anchor="middle" x="407.5" y="-524" font-family="monospace" font-size="10.00" fill="#000000">AccumulateGrad</text>
</g>
<!-- 140681186601472&#45;&gt;140681186601184 -->
<g id="edge15" class="edge">
<title>140681186601472&#45;&gt;140681186601184</title>
<path fill="none" stroke="#000000" d="M388.6441,-516.9136C369.1469,-507.0012 338.4965,-491.4184 316.2368,-480.1015"/>
<polygon fill="#000000" stroke="#000000" points="317.768,-476.9536 307.2677,-475.5416 314.5956,-483.1935 317.768,-476.9536"/>
</g>
<!-- 140681329417472 -->
<g id="node18" class="node">
<title>140681329417472</title>
<polygon fill="#add8e6" stroke="#000000" points="434.5,-602 380.5,-602 380.5,-572 434.5,-572 434.5,-602"/>
<text text-anchor="middle" x="407.5" y="-590" font-family="monospace" font-size="10.00" fill="#000000">x1</text>
<text text-anchor="middle" x="407.5" y="-579" font-family="monospace" font-size="10.00" fill="#000000"> ()</text>
</g>
<!-- 140681329417472&#45;&gt;140681186601472 -->
<g id="edge16" class="edge">
<title>140681329417472&#45;&gt;140681186601472</title>
<path fill="none" stroke="#000000" d="M407.5,-571.7333C407.5,-564.0322 407.5,-554.5977 407.5,-546.3414"/>
<polygon fill="#000000" stroke="#000000" points="411.0001,-546.0864 407.5,-536.0864 404.0001,-546.0864 411.0001,-546.0864"/>
</g>
<!-- 140681186600992 -->
<g id="node19" class="node">
<title>140681186600992</title>
<polygon fill="#d3d3d3" stroke="#000000" points="440,-415 339,-415 339,-396 440,-396 440,-415"/>
<text text-anchor="middle" x="389.5" y="-403" font-family="monospace" font-size="10.00" fill="#000000">AccumulateGrad</text>
</g>
<!-- 140681186600992&#45;&gt;140681186599600 -->
<g id="edge17" class="edge">
<title>140681186600992&#45;&gt;140681186599600</title>
<path fill="none" stroke="#000000" d="M379.5714,-395.9197C371.4169,-388.0514 359.6697,-376.7164 349.9508,-367.3385"/>
<polygon fill="#000000" stroke="#000000" points="352.3252,-364.7659 342.6987,-360.3408 347.4646,-369.8032 352.3252,-364.7659"/>
</g>
<!-- 140683708473920 -->
<g id="node20" class="node">
<title>140683708473920</title>
<polygon fill="#add8e6" stroke="#000000" points="416.5,-481 362.5,-481 362.5,-451 416.5,-451 416.5,-481"/>
<text text-anchor="middle" x="389.5" y="-469" font-family="monospace" font-size="10.00" fill="#000000">w2</text>
<text text-anchor="middle" x="389.5" y="-458" font-family="monospace" font-size="10.00" fill="#000000"> ()</text>
</g>
<!-- 140683708473920&#45;&gt;140681186600992 -->
<g id="edge18" class="edge">
<title>140683708473920&#45;&gt;140681186600992</title>
<path fill="none" stroke="#000000" d="M389.5,-450.7333C389.5,-443.0322 389.5,-433.5977 389.5,-425.3414"/>
<polygon fill="#000000" stroke="#000000" points="393.0001,-425.0864 389.5,-415.0864 386.0001,-425.0864 393.0001,-425.0864"/>
</g>
</g>
</svg>
