<?xml version="1.0" encoding="UTF-8" standalone="no"?>
<!DOCTYPE svg PUBLIC "-//W3C//DTD SVG 1.1//EN"
 "http://www.w3.org/Graphics/SVG/1.1/DTD/svg11.dtd">
<!-- Generated by graphviz version 2.43.0 (0)
 -->
<!-- Title: %3 Pages: 1 -->
<svg width="466pt" height="610pt"
 viewBox="0.00 0.00 466.00 610.00" xmlns="http://www.w3.org/2000/svg" xmlns:xlink="http://www.w3.org/1999/xlink">
<g id="graph0" class="graph" transform="scale(1 1) rotate(0) translate(4 606)">
<title>%3</title>
<polygon fill="white" stroke="transparent" points="-4,4 -4,-606 462,-606 462,4 -4,4"/>
<!-- 136818932538560 -->
<g id="node1" class="node">
<title>136818932538560</title>
<polygon fill="#caff70" stroke="black" points="359.5,-30 305.5,-30 305.5,0 359.5,0 359.5,-30"/>
<text text-anchor="middle" x="332.5" y="-18" font-family="monospace" font-size="10.00">h</text>
<text text-anchor="middle" x="332.5" y="-7" font-family="monospace" font-size="10.00"> ()</text>
</g>
<!-- 136818937580176 -->
<g id="node2" class="node">
<title>136818937580176</title>
<polygon fill="lightgrey" stroke="black" points="377,-85 288,-85 288,-66 377,-66 377,-85"/>
<text text-anchor="middle" x="332.5" y="-73" font-family="monospace" font-size="10.00">MulBackward0</text>
</g>
<!-- 136818937580176&#45;&gt;136818932538560 -->
<g id="edge19" class="edge">
<title>136818937580176&#45;&gt;136818932538560</title>
<path fill="none" stroke="black" d="M332.5,-65.87C332.5,-59.11 332.5,-49.35 332.5,-40.26"/>
<polygon fill="black" stroke="black" points="336,-40.11 332.5,-30.11 329,-40.11 336,-40.11"/>
</g>
<!-- 136818946307120 -->
<g id="node3" class="node">
<title>136818946307120</title>
<polygon fill="lightgrey" stroke="black" points="398,-140 267,-140 267,-121 398,-121 398,-140"/>
<text text-anchor="middle" x="332.5" y="-128" font-family="monospace" font-size="10.00">ReciprocalBackward0</text>
</g>
<!-- 136818946307120&#45;&gt;136818937580176 -->
<g id="edge1" class="edge">
<title>136818946307120&#45;&gt;136818937580176</title>
<path fill="none" stroke="black" d="M332.5,-120.75C332.5,-113.8 332.5,-103.85 332.5,-95.13"/>
<polygon fill="black" stroke="black" points="336,-95.09 332.5,-85.09 329,-95.09 336,-95.09"/>
</g>
<!-- 136818937593232 -->
<g id="node4" class="node">
<title>136818937593232</title>
<polygon fill="lightgrey" stroke="black" points="377,-195 288,-195 288,-176 377,-176 377,-195"/>
<text text-anchor="middle" x="332.5" y="-183" font-family="monospace" font-size="10.00">AddBackward0</text>
</g>
<!-- 136818937593232&#45;&gt;136818946307120 -->
<g id="edge2" class="edge">
<title>136818937593232&#45;&gt;136818946307120</title>
<path fill="none" stroke="black" d="M332.5,-175.75C332.5,-168.8 332.5,-158.85 332.5,-150.13"/>
<polygon fill="black" stroke="black" points="336,-150.09 332.5,-140.09 329,-150.09 336,-150.09"/>
</g>
<!-- 136818946012256 -->
<g id="node5" class="node">
<title>136818946012256</title>
<polygon fill="lightgrey" stroke="black" points="377,-250 288,-250 288,-231 377,-231 377,-250"/>
<text text-anchor="middle" x="332.5" y="-238" font-family="monospace" font-size="10.00">ExpBackward0</text>
</g>
<!-- 136818946012256&#45;&gt;136818937593232 -->
<g id="edge3" class="edge">
<title>136818946012256&#45;&gt;136818937593232</title>
<path fill="none" stroke="black" d="M332.5,-230.75C332.5,-223.8 332.5,-213.85 332.5,-205.13"/>
<polygon fill="black" stroke="black" points="336,-205.09 332.5,-195.09 329,-205.09 336,-205.09"/>
</g>
<!-- 136818937580992 -->
<g id="node6" class="node">
<title>136818937580992</title>
<polygon fill="lightgrey" stroke="black" points="377,-305 288,-305 288,-286 377,-286 377,-305"/>
<text text-anchor="middle" x="332.5" y="-293" font-family="monospace" font-size="10.00">NegBackward0</text>
</g>
<!-- 136818937580992&#45;&gt;136818946012256 -->
<g id="edge4" class="edge">
<title>136818937580992&#45;&gt;136818946012256</title>
<path fill="none" stroke="black" d="M332.5,-285.75C332.5,-278.8 332.5,-268.85 332.5,-260.13"/>
<polygon fill="black" stroke="black" points="336,-260.09 332.5,-250.09 329,-260.09 336,-260.09"/>
</g>
<!-- 136818937592560 -->
<g id="node7" class="node">
<title>136818937592560</title>
<polygon fill="lightgrey" stroke="black" points="377,-360 288,-360 288,-341 377,-341 377,-360"/>
<text text-anchor="middle" x="332.5" y="-348" font-family="monospace" font-size="10.00">AddBackward0</text>
</g>
<!-- 136818937592560&#45;&gt;136818937580992 -->
<g id="edge5" class="edge">
<title>136818937592560&#45;&gt;136818937580992</title>
<path fill="none" stroke="black" d="M332.5,-340.75C332.5,-333.8 332.5,-323.85 332.5,-315.13"/>
<polygon fill="black" stroke="black" points="336,-315.09 332.5,-305.09 329,-315.09 336,-315.09"/>
</g>
<!-- 136818937586848 -->
<g id="node8" class="node">
<title>136818937586848</title>
<polygon fill="lightgrey" stroke="black" points="321,-415 232,-415 232,-396 321,-396 321,-415"/>
<text text-anchor="middle" x="276.5" y="-403" font-family="monospace" font-size="10.00">AddBackward0</text>
</g>
<!-- 136818937586848&#45;&gt;136818937592560 -->
<g id="edge6" class="edge">
<title>136818937586848&#45;&gt;136818937592560</title>
<path fill="none" stroke="black" d="M285.5,-395.98C293.69,-388.23 306.01,-376.58 315.97,-367.14"/>
<polygon fill="black" stroke="black" points="318.48,-369.59 323.34,-360.17 313.67,-364.5 318.48,-369.59"/>
</g>
<!-- 136818937592800 -->
<g id="node9" class="node">
<title>136818937592800</title>
<polygon fill="lightgrey" stroke="black" points="214,-475.5 125,-475.5 125,-456.5 214,-456.5 214,-475.5"/>
<text text-anchor="middle" x="169.5" y="-463.5" font-family="monospace" font-size="10.00">MulBackward0</text>
</g>
<!-- 136818937592800&#45;&gt;136818937586848 -->
<g id="edge7" class="edge">
<title>136818937592800&#45;&gt;136818937586848</title>
<path fill="none" stroke="black" d="M185.29,-456.37C202.83,-446.78 231.38,-431.17 251.87,-419.97"/>
<polygon fill="black" stroke="black" points="253.55,-423.04 260.65,-415.17 250.19,-416.89 253.55,-423.04"/>
</g>
<!-- 136818937593088 -->
<g id="node10" class="node">
<title>136818937593088</title>
<polygon fill="lightgrey" stroke="black" points="101,-536 0,-536 0,-517 101,-517 101,-536"/>
<text text-anchor="middle" x="50.5" y="-524" font-family="monospace" font-size="10.00">AccumulateGrad</text>
</g>
<!-- 136818937593088&#45;&gt;136818937592800 -->
<g id="edge8" class="edge">
<title>136818937593088&#45;&gt;136818937592800</title>
<path fill="none" stroke="black" d="M67.8,-516.99C87.55,-507.29 120.05,-491.31 142.99,-480.03"/>
<polygon fill="black" stroke="black" points="144.75,-483.07 152.18,-475.52 141.66,-476.79 144.75,-483.07"/>
</g>
<!-- 136823250198896 -->
<g id="node11" class="node">
<title>136823250198896</title>
<polygon fill="lightblue" stroke="black" points="77.5,-602 23.5,-602 23.5,-572 77.5,-572 77.5,-602"/>
<text text-anchor="middle" x="50.5" y="-590" font-family="monospace" font-size="10.00">w0</text>
<text text-anchor="middle" x="50.5" y="-579" font-family="monospace" font-size="10.00"> ()</text>
</g>
<!-- 136823250198896&#45;&gt;136818937593088 -->
<g id="edge9" class="edge">
<title>136823250198896&#45;&gt;136818937593088</title>
<path fill="none" stroke="black" d="M50.5,-571.84C50.5,-564.21 50.5,-554.7 50.5,-546.45"/>
<polygon fill="black" stroke="black" points="54,-546.27 50.5,-536.27 47,-546.27 54,-546.27"/>
</g>
<!-- 136818937593424 -->
<g id="node12" class="node">
<title>136818937593424</title>
<polygon fill="lightgrey" stroke="black" points="220,-536 119,-536 119,-517 220,-517 220,-536"/>
<text text-anchor="middle" x="169.5" y="-524" font-family="monospace" font-size="10.00">AccumulateGrad</text>
</g>
<!-- 136818937593424&#45;&gt;136818937592800 -->
<g id="edge10" class="edge">
<title>136818937593424&#45;&gt;136818937592800</title>
<path fill="none" stroke="black" d="M169.5,-516.87C169.5,-508.75 169.5,-496.31 169.5,-485.89"/>
<polygon fill="black" stroke="black" points="173,-485.67 169.5,-475.67 166,-485.67 173,-485.67"/>
</g>
<!-- 136819366099648 -->
<g id="node13" class="node">
<title>136819366099648</title>
<polygon fill="lightblue" stroke="black" points="196.5,-602 142.5,-602 142.5,-572 196.5,-572 196.5,-602"/>
<text text-anchor="middle" x="169.5" y="-590" font-family="monospace" font-size="10.00">x0</text>
<text text-anchor="middle" x="169.5" y="-579" font-family="monospace" font-size="10.00"> ()</text>
</g>
<!-- 136819366099648&#45;&gt;136818937593424 -->
<g id="edge11" class="edge">
<title>136819366099648&#45;&gt;136818937593424</title>
<path fill="none" stroke="black" d="M169.5,-571.84C169.5,-564.21 169.5,-554.7 169.5,-546.45"/>
<polygon fill="black" stroke="black" points="173,-546.27 169.5,-536.27 166,-546.27 173,-546.27"/>
</g>
<!-- 136818937589584 -->
<g id="node14" class="node">
<title>136818937589584</title>
<polygon fill="lightgrey" stroke="black" points="333,-475.5 244,-475.5 244,-456.5 333,-456.5 333,-475.5"/>
<text text-anchor="middle" x="288.5" y="-463.5" font-family="monospace" font-size="10.00">MulBackward0</text>
</g>
<!-- 136818937589584&#45;&gt;136818937586848 -->
<g id="edge12" class="edge">
<title>136818937589584&#45;&gt;136818937586848</title>
<path fill="none" stroke="black" d="M286.73,-456.37C285.05,-448.16 282.46,-435.54 280.31,-425.05"/>
<polygon fill="black" stroke="black" points="283.72,-424.26 278.28,-415.17 276.86,-425.67 283.72,-424.26"/>
</g>
<!-- 136818937591216 -->
<g id="node15" class="node">
<title>136818937591216</title>
<polygon fill="lightgrey" stroke="black" points="339,-536 238,-536 238,-517 339,-517 339,-536"/>
<text text-anchor="middle" x="288.5" y="-524" font-family="monospace" font-size="10.00">AccumulateGrad</text>
</g>
<!-- 136818937591216&#45;&gt;136818937589584 -->
<g id="edge13" class="edge">
<title>136818937591216&#45;&gt;136818937589584</title>
<path fill="none" stroke="black" d="M288.5,-516.87C288.5,-508.75 288.5,-496.31 288.5,-485.89"/>
<polygon fill="black" stroke="black" points="292,-485.67 288.5,-475.67 285,-485.67 292,-485.67"/>
</g>
<!-- 136819364905280 -->
<g id="node16" class="node">
<title>136819364905280</title>
<polygon fill="lightblue" stroke="black" points="315.5,-602 261.5,-602 261.5,-572 315.5,-572 315.5,-602"/>
<text text-anchor="middle" x="288.5" y="-590" font-family="monospace" font-size="10.00">w1</text>
<text text-anchor="middle" x="288.5" y="-579" font-family="monospace" font-size="10.00"> ()</text>
</g>
<!-- 136819364905280&#45;&gt;136818937591216 -->
<g id="edge14" class="edge">
<title>136819364905280&#45;&gt;136818937591216</title>
<path fill="none" stroke="black" d="M288.5,-571.84C288.5,-564.21 288.5,-554.7 288.5,-546.45"/>
<polygon fill="black" stroke="black" points="292,-546.27 288.5,-536.27 285,-546.27 292,-546.27"/>
</g>
<!-- 136818937592752 -->
<g id="node17" class="node">
<title>136818937592752</title>
<polygon fill="lightgrey" stroke="black" points="458,-536 357,-536 357,-517 458,-517 458,-536"/>
<text text-anchor="middle" x="407.5" y="-524" font-family="monospace" font-size="10.00">AccumulateGrad</text>
</g>
<!-- 136818937592752&#45;&gt;136818937589584 -->
<g id="edge15" class="edge">
<title>136818937592752&#45;&gt;136818937589584</title>
<path fill="none" stroke="black" d="M390.2,-516.99C370.45,-507.29 337.95,-491.31 315.01,-480.03"/>
<polygon fill="black" stroke="black" points="316.34,-476.79 305.82,-475.52 313.25,-483.07 316.34,-476.79"/>
</g>
<!-- 136818932536480 -->
<g id="node18" class="node">
<title>136818932536480</title>
<polygon fill="lightblue" stroke="black" points="434.5,-602 380.5,-602 380.5,-572 434.5,-572 434.5,-602"/>
<text text-anchor="middle" x="407.5" y="-590" font-family="monospace" font-size="10.00">x1</text>
<text text-anchor="middle" x="407.5" y="-579" font-family="monospace" font-size="10.00"> ()</text>
</g>
<!-- 136818932536480&#45;&gt;136818937592752 -->
<g id="edge16" class="edge">
<title>136818932536480&#45;&gt;136818937592752</title>
<path fill="none" stroke="black" d="M407.5,-571.84C407.5,-564.21 407.5,-554.7 407.5,-546.45"/>
<polygon fill="black" stroke="black" points="411,-546.27 407.5,-536.27 404,-546.27 411,-546.27"/>
</g>
<!-- 136818937591792 -->
<g id="node19" class="node">
<title>136818937591792</title>
<polygon fill="lightgrey" stroke="black" points="440,-415 339,-415 339,-396 440,-396 440,-415"/>
<text text-anchor="middle" x="389.5" y="-403" font-family="monospace" font-size="10.00">AccumulateGrad</text>
</g>
<!-- 136818937591792&#45;&gt;136818937592560 -->
<g id="edge17" class="edge">
<title>136818937591792&#45;&gt;136818937592560</title>
<path fill="none" stroke="black" d="M380.34,-395.98C372,-388.23 359.47,-376.58 349.32,-367.14"/>
<polygon fill="black" stroke="black" points="351.53,-364.42 341.82,-360.17 346.76,-369.54 351.53,-364.42"/>
</g>
<!-- 136818932536400 -->
<g id="node20" class="node">
<title>136818932536400</title>
<polygon fill="lightblue" stroke="black" points="416.5,-481 362.5,-481 362.5,-451 416.5,-451 416.5,-481"/>
<text text-anchor="middle" x="389.5" y="-469" font-family="monospace" font-size="10.00">w2</text>
<text text-anchor="middle" x="389.5" y="-458" font-family="monospace" font-size="10.00"> ()</text>
</g>
<!-- 136818932536400&#45;&gt;136818937591792 -->
<g id="edge18" class="edge">
<title>136818932536400&#45;&gt;136818937591792</title>
<path fill="none" stroke="black" d="M389.5,-450.84C389.5,-443.21 389.5,-433.7 389.5,-425.45"/>
<polygon fill="black" stroke="black" points="393,-425.27 389.5,-415.27 386,-425.27 393,-425.27"/>
</g>
</g>
</svg>
