<?xml version="1.0" encoding="UTF-8" standalone="no"?>
<!DOCTYPE svg PUBLIC "-//W3C//DTD SVG 1.1//EN"
 "http://www.w3.org/Graphics/SVG/1.1/DTD/svg11.dtd">
<!-- Generated by graphviz version 2.40.1 (20161225.0304)
 -->
<!-- Title: %3 Pages: 1 -->
<svg width="332pt" height="413pt"
 viewBox="0.00 0.00 332.00 413.00" xmlns="http://www.w3.org/2000/svg" xmlns:xlink="http://www.w3.org/1999/xlink">
<g id="graph0" class="graph" transform="scale(1 1) rotate(0) translate(4 409)">
<title>%3</title>
<polygon fill="#ffffff" stroke="transparent" points="-4,4 -4,-409 328,-409 328,4 -4,4"/>
<!-- 140683669322432 -->
<g id="node1" class="node">
<title>140683669322432</title>
<polygon fill="#caff70" stroke="#000000" points="243.5,-31 189.5,-31 189.5,0 243.5,0 243.5,-31"/>
<text text-anchor="middle" x="216.5" y="-7" font-family="monospace" font-size="10.00" fill="#000000"> (1)</text>
</g>
<!-- 140681329403696 -->
<g id="node2" class="node">
<title>140681329403696</title>
<polygon fill="#d3d3d3" stroke="#000000" points="261,-86 172,-86 172,-67 261,-67 261,-86"/>
<text text-anchor="middle" x="216.5" y="-74" font-family="monospace" font-size="10.00" fill="#000000">AddBackward0</text>
</g>
<!-- 140681329403696&#45;&gt;140683669322432 -->
<g id="edge14" class="edge">
<title>140681329403696&#45;&gt;140683669322432</title>
<path fill="none" stroke="#000000" d="M216.5,-66.9688C216.5,-60.1289 216.5,-50.5621 216.5,-41.5298"/>
<polygon fill="#000000" stroke="#000000" points="220.0001,-41.3678 216.5,-31.3678 213.0001,-41.3678 220.0001,-41.3678"/>
</g>
<!-- 140681329404704 -->
<g id="node3" class="node">
<title>140681329404704</title>
<polygon fill="#d3d3d3" stroke="#000000" points="205,-141 116,-141 116,-122 205,-122 205,-141"/>
<text text-anchor="middle" x="160.5" y="-129" font-family="monospace" font-size="10.00" fill="#000000">MulBackward0</text>
</g>
<!-- 140681329404704&#45;&gt;140681329403696 -->
<g id="edge1" class="edge">
<title>140681329404704&#45;&gt;140681329403696</title>
<path fill="none" stroke="#000000" d="M170.2545,-121.9197C178.1865,-114.1293 189.5788,-102.9405 199.0712,-93.6176"/>
<polygon fill="#000000" stroke="#000000" points="201.7982,-95.845 206.4802,-86.3408 196.8932,-90.8509 201.7982,-95.845"/>
</g>
<!-- 140681329405568 -->
<g id="node4" class="node">
<title>140681329405568</title>
<polygon fill="#d3d3d3" stroke="#000000" points="110,-201.5 9,-201.5 9,-182.5 110,-182.5 110,-201.5"/>
<text text-anchor="middle" x="59.5" y="-189.5" font-family="monospace" font-size="10.00" fill="#000000">AccumulateGrad</text>
</g>
<!-- 140681329405568&#45;&gt;140681329404704 -->
<g id="edge2" class="edge">
<title>140681329405568&#45;&gt;140681329404704</title>
<path fill="none" stroke="#000000" d="M75.7274,-182.2796C91.9246,-172.5773 117.0282,-157.54 135.7194,-146.3438"/>
<polygon fill="#000000" stroke="#000000" points="137.5328,-149.3375 144.3129,-141.1962 133.9356,-143.3325 137.5328,-149.3375"/>
</g>
<!-- 140681329255744 -->
<g id="node5" class="node">
<title>140681329255744</title>
<polygon fill="#add8e6" stroke="#000000" points="86.5,-273 32.5,-273 32.5,-243 86.5,-243 86.5,-273"/>
<text text-anchor="middle" x="59.5" y="-261" font-family="monospace" font-size="10.00" fill="#000000">d</text>
<text text-anchor="middle" x="59.5" y="-250" font-family="monospace" font-size="10.00" fill="#000000"> (1)</text>
</g>
<!-- 140681329255744&#45;&gt;140681329405568 -->
<g id="edge3" class="edge">
<title>140681329255744&#45;&gt;140681329405568</title>
<path fill="none" stroke="#000000" d="M59.5,-242.6924C59.5,-233.5067 59.5,-221.7245 59.5,-211.8312"/>
<polygon fill="#000000" stroke="#000000" points="63.0001,-211.703 59.5,-201.7031 56.0001,-211.7031 63.0001,-211.703"/>
</g>
<!-- 140681329405328 -->
<g id="node6" class="node">
<title>140681329405328</title>
<polygon fill="#d3d3d3" stroke="#000000" points="217,-201.5 128,-201.5 128,-182.5 217,-182.5 217,-201.5"/>
<text text-anchor="middle" x="172.5" y="-189.5" font-family="monospace" font-size="10.00" fill="#000000">MulBackward0</text>
</g>
<!-- 140681329405328&#45;&gt;140681329404704 -->
<g id="edge4" class="edge">
<title>140681329405328&#45;&gt;140681329404704</title>
<path fill="none" stroke="#000000" d="M170.572,-182.2796C168.9198,-173.9499 166.4877,-161.688 164.4274,-151.3004"/>
<polygon fill="#000000" stroke="#000000" points="167.8419,-150.5252 162.4631,-141.3972 160.9756,-151.8871 167.8419,-150.5252"/>
</g>
<!-- 140681329404128 -->
<g id="node7" class="node">
<title>140681329404128</title>
<polygon fill="#d3d3d3" stroke="#000000" points="205,-267.5 116,-267.5 116,-248.5 205,-248.5 205,-267.5"/>
<text text-anchor="middle" x="160.5" y="-255.5" font-family="monospace" font-size="10.00" fill="#000000">AddBackward0</text>
</g>
<!-- 140681329404128&#45;&gt;140681329405328 -->
<g id="edge5" class="edge">
<title>140681329404128&#45;&gt;140681329405328</title>
<path fill="none" stroke="#000000" d="M162.2706,-248.2615C164.0077,-238.7077 166.707,-223.8615 168.8967,-211.8183"/>
<polygon fill="#000000" stroke="#000000" points="172.3767,-212.2433 170.7221,-201.7785 165.4896,-210.9911 172.3767,-212.2433"/>
</g>
<!-- 140681329403456 -->
<g id="node8" class="node">
<title>140681329403456</title>
<polygon fill="#d3d3d3" stroke="#000000" points="101,-333.5 0,-333.5 0,-314.5 101,-314.5 101,-333.5"/>
<text text-anchor="middle" x="50.5" y="-321.5" font-family="monospace" font-size="10.00" fill="#000000">AccumulateGrad</text>
</g>
<!-- 140681329403456&#45;&gt;140681329404128 -->
<g id="edge6" class="edge">
<title>140681329403456&#45;&gt;140681329404128</title>
<path fill="none" stroke="#000000" d="M66.7309,-314.2615C84.9514,-303.3292 114.7218,-285.4669 135.8259,-272.8045"/>
<polygon fill="#000000" stroke="#000000" points="137.786,-275.7101 144.5602,-267.5639 134.1845,-269.7077 137.786,-275.7101"/>
</g>
<!-- 140681329256192 -->
<g id="node9" class="node">
<title>140681329256192</title>
<polygon fill="#add8e6" stroke="#000000" points="77.5,-405 23.5,-405 23.5,-375 77.5,-375 77.5,-405"/>
<text text-anchor="middle" x="50.5" y="-393" font-family="monospace" font-size="10.00" fill="#000000">a</text>
<text text-anchor="middle" x="50.5" y="-382" font-family="monospace" font-size="10.00" fill="#000000"> (1)</text>
</g>
<!-- 140681329256192&#45;&gt;140681329403456 -->
<g id="edge7" class="edge">
<title>140681329256192&#45;&gt;140681329403456</title>
<path fill="none" stroke="#000000" d="M50.5,-374.6924C50.5,-365.5067 50.5,-353.7245 50.5,-343.8312"/>
<polygon fill="#000000" stroke="#000000" points="54.0001,-343.703 50.5,-333.7031 47.0001,-343.7031 54.0001,-343.703"/>
</g>
<!-- 140681329405808 -->
<g id="node10" class="node">
<title>140681329405808</title>
<polygon fill="#d3d3d3" stroke="#000000" points="220,-333.5 119,-333.5 119,-314.5 220,-314.5 220,-333.5"/>
<text text-anchor="middle" x="169.5" y="-321.5" font-family="monospace" font-size="10.00" fill="#000000">AccumulateGrad</text>
</g>
<!-- 140681329405808&#45;&gt;140681329404128 -->
<g id="edge8" class="edge">
<title>140681329405808&#45;&gt;140681329404128</title>
<path fill="none" stroke="#000000" d="M168.172,-314.2615C166.8692,-304.7077 164.8448,-289.8615 163.2025,-277.8183"/>
<polygon fill="#000000" stroke="#000000" points="166.6526,-277.2139 161.8334,-267.7785 159.7167,-278.1597 166.6526,-277.2139"/>
</g>
<!-- 140681329256320 -->
<g id="node11" class="node">
<title>140681329256320</title>
<polygon fill="#add8e6" stroke="#000000" points="196.5,-405 142.5,-405 142.5,-375 196.5,-375 196.5,-405"/>
<text text-anchor="middle" x="169.5" y="-393" font-family="monospace" font-size="10.00" fill="#000000">b</text>
<text text-anchor="middle" x="169.5" y="-382" font-family="monospace" font-size="10.00" fill="#000000"> (1)</text>
</g>
<!-- 140681329256320&#45;&gt;140681329405808 -->
<g id="edge9" class="edge">
<title>140681329256320&#45;&gt;140681329405808</title>
<path fill="none" stroke="#000000" d="M169.5,-374.6924C169.5,-365.5067 169.5,-353.7245 169.5,-343.8312"/>
<polygon fill="#000000" stroke="#000000" points="173.0001,-343.703 169.5,-333.7031 166.0001,-343.7031 173.0001,-343.703"/>
</g>
<!-- 140681329403264 -->
<g id="node12" class="node">
<title>140681329403264</title>
<polygon fill="#d3d3d3" stroke="#000000" points="324,-267.5 223,-267.5 223,-248.5 324,-248.5 324,-267.5"/>
<text text-anchor="middle" x="273.5" y="-255.5" font-family="monospace" font-size="10.00" fill="#000000">AccumulateGrad</text>
</g>
<!-- 140681329403264&#45;&gt;140681329405328 -->
<g id="edge10" class="edge">
<title>140681329403264&#45;&gt;140681329405328</title>
<path fill="none" stroke="#000000" d="M258.5971,-248.2615C242.0174,-237.4272 215.0222,-219.7868 195.6786,-207.1464"/>
<polygon fill="#000000" stroke="#000000" points="197.4214,-204.1043 187.1357,-201.5639 193.5922,-209.9641 197.4214,-204.1043"/>
</g>
<!-- 140681329255424 -->
<g id="node13" class="node">
<title>140681329255424</title>
<polygon fill="#add8e6" stroke="#000000" points="300.5,-339 246.5,-339 246.5,-309 300.5,-309 300.5,-339"/>
<text text-anchor="middle" x="273.5" y="-327" font-family="monospace" font-size="10.00" fill="#000000">c</text>
<text text-anchor="middle" x="273.5" y="-316" font-family="monospace" font-size="10.00" fill="#000000"> (1)</text>
</g>
<!-- 140681329255424&#45;&gt;140681329403264 -->
<g id="edge11" class="edge">
<title>140681329255424&#45;&gt;140681329403264</title>
<path fill="none" stroke="#000000" d="M273.5,-308.6924C273.5,-299.5067 273.5,-287.7245 273.5,-277.8312"/>
<polygon fill="#000000" stroke="#000000" points="277.0001,-277.703 273.5,-267.7031 270.0001,-277.7031 277.0001,-277.703"/>
</g>
<!-- 140681329404752 -->
<g id="node14" class="node">
<title>140681329404752</title>
<polygon fill="#d3d3d3" stroke="#000000" points="324,-141 223,-141 223,-122 324,-122 324,-141"/>
<text text-anchor="middle" x="273.5" y="-129" font-family="monospace" font-size="10.00" fill="#000000">AccumulateGrad</text>
</g>
<!-- 140681329404752&#45;&gt;140681329403696 -->
<g id="edge12" class="edge">
<title>140681329404752&#45;&gt;140681329403696</title>
<path fill="none" stroke="#000000" d="M263.5714,-121.9197C255.4169,-114.0514 243.6697,-102.7164 233.9508,-93.3385"/>
<polygon fill="#000000" stroke="#000000" points="236.3252,-90.7659 226.6987,-86.3408 231.4646,-95.8032 236.3252,-90.7659"/>
</g>
<!-- 140681329254720 -->
<g id="node15" class="node">
<title>140681329254720</title>
<polygon fill="#add8e6" stroke="#000000" points="300.5,-207 246.5,-207 246.5,-177 300.5,-177 300.5,-207"/>
<text text-anchor="middle" x="273.5" y="-195" font-family="monospace" font-size="10.00" fill="#000000">e</text>
<text text-anchor="middle" x="273.5" y="-184" font-family="monospace" font-size="10.00" fill="#000000"> (1)</text>
</g>
<!-- 140681329254720&#45;&gt;140681329404752 -->
<g id="edge13" class="edge">
<title>140681329254720&#45;&gt;140681329404752</title>
<path fill="none" stroke="#000000" d="M273.5,-176.7333C273.5,-169.0322 273.5,-159.5977 273.5,-151.3414"/>
<polygon fill="#000000" stroke="#000000" points="277.0001,-151.0864 273.5,-141.0864 270.0001,-151.0864 277.0001,-151.0864"/>
</g>
</g>
</svg>
