<?xml version="1.0" encoding="UTF-8" standalone="no"?>
<!DOCTYPE svg PUBLIC "-//W3C//DTD SVG 1.1//EN"
 "http://www.w3.org/Graphics/SVG/1.1/DTD/svg11.dtd">
<!-- Generated by graphviz version 2.40.1 (20161225.0304)
 -->
<!-- Title: %3 Pages: 1 -->
<svg width="323pt" height="402pt"
 viewBox="0.00 0.00 323.00 402.00" xmlns="http://www.w3.org/2000/svg" xmlns:xlink="http://www.w3.org/1999/xlink">
<g id="graph0" class="graph" transform="scale(1 1) rotate(0) translate(4 398)">
<title>%3</title>
<polygon fill="#ffffff" stroke="transparent" points="-4,4 -4,-398 319,-398 319,4 -4,4"/>
<!-- 140681186595712 -->
<g id="node1" class="node">
<title>140681186595712</title>
<polygon fill="#caff70" stroke="#000000" points="234.5,-31 180.5,-31 180.5,0 234.5,0 234.5,-31"/>
<text text-anchor="middle" x="207.5" y="-7" font-family="monospace" font-size="10.00" fill="#000000"> (1)</text>
</g>
<!-- 140681329405280 -->
<g id="node2" class="node">
<title>140681329405280</title>
<polygon fill="#d3d3d3" stroke="#000000" points="252,-86 163,-86 163,-67 252,-67 252,-86"/>
<text text-anchor="middle" x="207.5" y="-74" font-family="monospace" font-size="10.00" fill="#000000">AddBackward0</text>
</g>
<!-- 140681329405280&#45;&gt;140681186595712 -->
<g id="edge12" class="edge">
<title>140681329405280&#45;&gt;140681186595712</title>
<path fill="none" stroke="#000000" d="M207.5,-66.9688C207.5,-60.1289 207.5,-50.5621 207.5,-41.5298"/>
<polygon fill="#000000" stroke="#000000" points="211.0001,-41.3678 207.5,-31.3678 204.0001,-41.3678 211.0001,-41.3678"/>
</g>
<!-- 140681329403504 -->
<g id="node3" class="node">
<title>140681329403504</title>
<polygon fill="#d3d3d3" stroke="#000000" points="196,-141 107,-141 107,-122 196,-122 196,-141"/>
<text text-anchor="middle" x="151.5" y="-129" font-family="monospace" font-size="10.00" fill="#000000">MulBackward0</text>
</g>
<!-- 140681329403504&#45;&gt;140681329405280 -->
<g id="edge1" class="edge">
<title>140681329403504&#45;&gt;140681329405280</title>
<path fill="none" stroke="#000000" d="M161.2545,-121.9197C169.1865,-114.1293 180.5788,-102.9405 190.0712,-93.6176"/>
<polygon fill="#000000" stroke="#000000" points="192.7982,-95.845 197.4802,-86.3408 187.8932,-90.8509 192.7982,-95.845"/>
</g>
<!-- 140681329405568 -->
<g id="node4" class="node">
<title>140681329405568</title>
<polygon fill="#d3d3d3" stroke="#000000" points="101,-201.5 0,-201.5 0,-182.5 101,-182.5 101,-201.5"/>
<text text-anchor="middle" x="50.5" y="-189.5" font-family="monospace" font-size="10.00" fill="#000000">AccumulateGrad</text>
</g>
<!-- 140681329405568&#45;&gt;140681329403504 -->
<g id="edge2" class="edge">
<title>140681329405568&#45;&gt;140681329403504</title>
<path fill="none" stroke="#000000" d="M66.7274,-182.2796C82.9246,-172.5773 108.0282,-157.54 126.7194,-146.3438"/>
<polygon fill="#000000" stroke="#000000" points="128.5328,-149.3375 135.3129,-141.1962 124.9356,-143.3325 128.5328,-149.3375"/>
</g>
<!-- 140681329255744 -->
<g id="node5" class="node">
<title>140681329255744</title>
<polygon fill="#add8e6" stroke="#000000" points="77.5,-273 23.5,-273 23.5,-243 77.5,-243 77.5,-273"/>
<text text-anchor="middle" x="50.5" y="-261" font-family="monospace" font-size="10.00" fill="#000000">d</text>
<text text-anchor="middle" x="50.5" y="-250" font-family="monospace" font-size="10.00" fill="#000000"> (1)</text>
</g>
<!-- 140681329255744&#45;&gt;140681329405568 -->
<g id="edge3" class="edge">
<title>140681329255744&#45;&gt;140681329405568</title>
<path fill="none" stroke="#000000" d="M50.5,-242.6924C50.5,-233.5067 50.5,-221.7245 50.5,-211.8312"/>
<polygon fill="#000000" stroke="#000000" points="54.0001,-211.703 50.5,-201.7031 47.0001,-211.7031 54.0001,-211.703"/>
</g>
<!-- 140681329405040 -->
<g id="node6" class="node">
<title>140681329405040</title>
<polygon fill="#d3d3d3" stroke="#000000" points="208,-201.5 119,-201.5 119,-182.5 208,-182.5 208,-201.5"/>
<text text-anchor="middle" x="163.5" y="-189.5" font-family="monospace" font-size="10.00" fill="#000000">MulBackward0</text>
</g>
<!-- 140681329405040&#45;&gt;140681329403504 -->
<g id="edge4" class="edge">
<title>140681329405040&#45;&gt;140681329403504</title>
<path fill="none" stroke="#000000" d="M161.572,-182.2796C159.9198,-173.9499 157.4877,-161.688 155.4274,-151.3004"/>
<polygon fill="#000000" stroke="#000000" points="158.8419,-150.5252 153.4631,-141.3972 151.9756,-151.8871 158.8419,-150.5252"/>
</g>
<!-- 140681329404944 -->
<g id="node7" class="node">
<title>140681329404944</title>
<polygon fill="#d3d3d3" stroke="#000000" points="208,-267.5 119,-267.5 119,-248.5 208,-248.5 208,-267.5"/>
<text text-anchor="middle" x="163.5" y="-255.5" font-family="monospace" font-size="10.00" fill="#000000">AddBackward0</text>
</g>
<!-- 140681329404944&#45;&gt;140681329405040 -->
<g id="edge5" class="edge">
<title>140681329404944&#45;&gt;140681329405040</title>
<path fill="none" stroke="#000000" d="M163.5,-248.2615C163.5,-238.7077 163.5,-223.8615 163.5,-211.8183"/>
<polygon fill="#000000" stroke="#000000" points="167.0001,-211.7784 163.5,-201.7785 160.0001,-211.7785 167.0001,-211.7784"/>
</g>
<!-- 140681329403456 -->
<g id="node8" class="node">
<title>140681329403456</title>
<polygon fill="#d3d3d3" stroke="#000000" points="154,-328 53,-328 53,-309 154,-309 154,-328"/>
<text text-anchor="middle" x="103.5" y="-316" font-family="monospace" font-size="10.00" fill="#000000">AccumulateGrad</text>
</g>
<!-- 140681329403456&#45;&gt;140681329404944 -->
<g id="edge6" class="edge">
<title>140681329403456&#45;&gt;140681329404944</title>
<path fill="none" stroke="#000000" d="M113.14,-308.7796C122.0965,-299.7485 135.6372,-286.095 146.4228,-275.2195"/>
<polygon fill="#000000" stroke="#000000" points="149.128,-277.4622 153.6846,-267.8972 144.1577,-272.533 149.128,-277.4622"/>
</g>
<!-- 140681329256192 -->
<g id="node9" class="node">
<title>140681329256192</title>
<polygon fill="#add8e6" stroke="#000000" points="130.5,-394 76.5,-394 76.5,-364 130.5,-364 130.5,-394"/>
<text text-anchor="middle" x="103.5" y="-382" font-family="monospace" font-size="10.00" fill="#000000">a</text>
<text text-anchor="middle" x="103.5" y="-371" font-family="monospace" font-size="10.00" fill="#000000"> (1)</text>
</g>
<!-- 140681329256192&#45;&gt;140681329403456 -->
<g id="edge7" class="edge">
<title>140681329256192&#45;&gt;140681329403456</title>
<path fill="none" stroke="#000000" d="M103.5,-363.7333C103.5,-356.0322 103.5,-346.5977 103.5,-338.3414"/>
<polygon fill="#000000" stroke="#000000" points="107.0001,-338.0864 103.5,-328.0864 100.0001,-338.0864 107.0001,-338.0864"/>
</g>
<!-- 140681329405808 -->
<g id="node10" class="node">
<title>140681329405808</title>
<polygon fill="#d3d3d3" stroke="#000000" points="273,-328 172,-328 172,-309 273,-309 273,-328"/>
<text text-anchor="middle" x="222.5" y="-316" font-family="monospace" font-size="10.00" fill="#000000">AccumulateGrad</text>
</g>
<!-- 140681329405808&#45;&gt;140681329404944 -->
<g id="edge8" class="edge">
<title>140681329405808&#45;&gt;140681329404944</title>
<path fill="none" stroke="#000000" d="M213.0206,-308.7796C204.2134,-299.7485 190.8984,-286.095 180.2926,-275.2195"/>
<polygon fill="#000000" stroke="#000000" points="182.6394,-272.6129 173.1519,-267.8972 177.6279,-277.5002 182.6394,-272.6129"/>
</g>
<!-- 140681329256320 -->
<g id="node11" class="node">
<title>140681329256320</title>
<polygon fill="#add8e6" stroke="#000000" points="249.5,-394 195.5,-394 195.5,-364 249.5,-364 249.5,-394"/>
<text text-anchor="middle" x="222.5" y="-382" font-family="monospace" font-size="10.00" fill="#000000">b</text>
<text text-anchor="middle" x="222.5" y="-371" font-family="monospace" font-size="10.00" fill="#000000"> (1)</text>
</g>
<!-- 140681329256320&#45;&gt;140681329405808 -->
<g id="edge9" class="edge">
<title>140681329256320&#45;&gt;140681329405808</title>
<path fill="none" stroke="#000000" d="M222.5,-363.7333C222.5,-356.0322 222.5,-346.5977 222.5,-338.3414"/>
<polygon fill="#000000" stroke="#000000" points="226.0001,-338.0864 222.5,-328.0864 219.0001,-338.0864 226.0001,-338.0864"/>
</g>
<!-- 140681329404752 -->
<g id="node12" class="node">
<title>140681329404752</title>
<polygon fill="#d3d3d3" stroke="#000000" points="315,-141 214,-141 214,-122 315,-122 315,-141"/>
<text text-anchor="middle" x="264.5" y="-129" font-family="monospace" font-size="10.00" fill="#000000">AccumulateGrad</text>
</g>
<!-- 140681329404752&#45;&gt;140681329405280 -->
<g id="edge10" class="edge">
<title>140681329404752&#45;&gt;140681329405280</title>
<path fill="none" stroke="#000000" d="M254.5714,-121.9197C246.4169,-114.0514 234.6697,-102.7164 224.9508,-93.3385"/>
<polygon fill="#000000" stroke="#000000" points="227.3252,-90.7659 217.6987,-86.3408 222.4646,-95.8032 227.3252,-90.7659"/>
</g>
<!-- 140681329254720 -->
<g id="node13" class="node">
<title>140681329254720</title>
<polygon fill="#add8e6" stroke="#000000" points="291.5,-207 237.5,-207 237.5,-177 291.5,-177 291.5,-207"/>
<text text-anchor="middle" x="264.5" y="-195" font-family="monospace" font-size="10.00" fill="#000000">e</text>
<text text-anchor="middle" x="264.5" y="-184" font-family="monospace" font-size="10.00" fill="#000000"> (1)</text>
</g>
<!-- 140681329254720&#45;&gt;140681329404752 -->
<g id="edge11" class="edge">
<title>140681329254720&#45;&gt;140681329404752</title>
<path fill="none" stroke="#000000" d="M264.5,-176.7333C264.5,-169.0322 264.5,-159.5977 264.5,-151.3414"/>
<polygon fill="#000000" stroke="#000000" points="268.0001,-151.0864 264.5,-141.0864 261.0001,-151.0864 268.0001,-151.0864"/>
</g>
</g>
</svg>
